<svg xmlns="http://www.w3.org/2000/svg" fill="none" viewBox="0 0 1080 1080"><path fill="#fff" fill-rule="evenodd" d="M575.959 201C763.206 201 915 352.794 915 540.041S763.206 879.082 575.959 879.082c-59.516 0-115.449-15.337-164.066-42.271-41.861 8.171-172.821 33.79-177.976 35.502-5.349 1.778 44.847-116.875 57.819-147.36-34.67-53.181-54.818-116.693-54.818-184.912C236.918 352.794 388.712 201 575.959 201m-.004 86.108c-139.687.001-252.926 113.24-252.926 252.927s113.239 252.926 252.926 252.926c36.983 0 72.112-7.939 103.776-22.203 32.811 11.403 91.706 31.926 94.344 33.245 2.756 1.377-17.075-51.447-27.055-77.665 50.322-46.23 81.862-112.583 81.862-186.303 0-139.687-113.24-252.927-252.927-252.927" clip-rule="evenodd"/><path fill="#fff" d="M575.961 383.583c86.403 0 156.446 70.044 156.446 156.446 0 86.403-70.043 156.446-156.446 156.446-29.939 0-57.913-8.412-81.69-22.998-33.539 6.553-97.58 19.12-100.431 20.08-3.35 1.122 33.052-64.671 42.823-82.245-10.961-21.377-17.147-45.607-17.147-71.283 0-86.402 70.043-156.446 156.445-156.446"/><path fill="#FFBF00" d="M575.959 469.682c38.853 0 70.35 31.497 70.35 70.35 0 10.235-2.188 19.959-6.119 28.732 4.491 11.729 18.897 49.632 17.141 48.754-1.325-.662-27.542-9.82-46.457-16.401-10.289 5.894-22.208 9.264-34.915 9.264-38.853 0-70.349-31.496-70.35-70.349s31.497-70.35 70.35-70.35"/><path fill="#000F47" d="M208.69 208s52.7 71.282 69.581 93.624l299.618 240.572-2.504 3.119L276.884 305.64 164 260.658l52.262-4.663z"/></svg>