<svg xmlns="http://www.w3.org/2000/svg" fill="none" viewBox="0 0 1080 1080"><g clip-path="url(#a)"><path fill="#000F47" d="M273.17 45.58h-4V24.064h4zm0 73.149h-4v-43.03h4zm0 73.149h-4v-43.029h4zm0 73.15h-4v-43.029h4zm0 73.15h-4v-43.029h4zm0 73.149h-4v-43.029h4zm0 73.15h-4v-43.029h4zm0 73.149h-4v-43.029h4zm0 73.15h-4v-43.029h4zm0 73.15h-4v-43.029h4zm0 73.15h-4v-43.03h4zm0 73.149h-4v-43.029h4zm0 73.149h-4v-43.029h4zm0 73.15h-4v-43.03h4zm0 51.636h-4v-21.52h4zM303.474-8.948h-4v-22.247h4zm0 75.641h-4V22.198h4zm0 75.641h-4V97.839h4zm0 75.641h-4V173.48h4zm0 75.641h-4v-44.495h4zm0 75.641h-4v-44.495h4zm0 75.64h-4v-44.494h4zm0 75.642h-4v-44.495h4zm0 75.641h-4v-44.495h4zm0 75.64h-4v-44.494h4zm0 75.642h-4v-44.495h4zm0 75.641h-4v-44.495h4zm0 75.641h-4v-44.495h4zm0 75.641h-4V929.89h4zm0 75.645h-4v-44.5h4zm0 53.39h-4v-22.25h4zM333.778 45.58h-4V24.064h4zm0 73.149h-4v-43.03h4zm0 73.149h-4v-43.029h4zm0 73.15h-4v-43.029h4zm0 73.15h-4v-43.029h4zm0 73.149h-4v-43.029h4zm0 73.15h-4v-43.029h4zm0 73.149h-4v-43.029h4zm0 73.15h-4v-43.029h4zm0 73.15h-4v-43.029h4zm0 73.15h-4v-43.03h4zm0 73.149h-4v-43.029h4zm0 73.149h-4v-43.029h4zm0 73.15h-4v-43.03h4zm0 51.636h-4v-21.52h4zM364.082-8.948h-4v-22.247h4zm0 75.641h-4V22.198h4zm0 75.641h-4V97.839h4zm0 75.641h-4V173.48h4zm0 75.641h-4v-44.495h4zm0 75.641h-4v-44.495h4zm0 75.64h-4v-44.494h4zm0 75.642h-4v-44.495h4zm0 75.641h-4v-44.495h4zm0 75.64h-4v-44.494h4zm0 75.642h-4v-44.495h4zm0 75.641h-4v-44.495h4zm0 75.641h-4v-44.495h4zm0 75.641h-4V929.89h4zm0 75.645h-4v-44.5h4zm0 53.39h-4v-22.25h4zM394.386 45.58h-4V24.064h4zm0 73.149h-4v-43.03h4zm0 73.149h-4v-43.029h4zm0 73.15h-4v-43.029h4zm0 73.15h-4v-43.029h4zm0 73.149h-4v-43.029h4zm0 73.15h-4v-43.029h4zm0 73.149h-4v-43.029h4zm0 73.15h-4v-43.029h4zm0 73.15h-4v-43.029h4zm0 73.15h-4v-43.03h4zm0 73.149h-4v-43.029h4zm0 73.149h-4v-43.029h4zm0 73.15h-4v-43.03h4zm0 51.636h-4v-21.52h4zM424.69-8.948h-4v-22.247h4zm0 75.641h-4V22.198h4zm0 75.641h-4V97.839h4zm0 75.641h-4V173.48h4zm0 75.641h-4v-44.495h4zm0 75.641h-4v-44.495h4zm0 75.64h-4v-44.494h4zm0 75.642h-4v-44.495h4zm0 75.641h-4v-44.495h4zm0 75.64h-4v-44.494h4zm0 75.642h-4v-44.495h4zm0 75.641h-4v-44.495h4zm0 75.641h-4v-44.495h4zm0 75.641h-4V929.89h4zm-.001 75.645h-4v-44.5h4zm0 53.39h-4v-22.25h4zM454.993 45.58h-4V24.064h4zm0 73.149h-4v-43.03h4zm0 73.149h-4v-43.029h4zm0 73.15h-4v-43.029h4zm0 73.15h-4v-43.029h4zm0 73.149h-4v-43.029h4zm0 73.15h-4v-43.029h4zm0 73.149h-4v-43.029h4zm0 73.15h-4v-43.029h4zm0 73.15h-4v-43.029h4zm0 73.15h-4v-43.03h4zm0 73.149h-4v-43.029h4zm0 73.149h-4v-43.029h4zm0 73.15h-4v-43.03h4zm0 51.636h-4v-21.52h4zM485.297-8.948h-4v-22.247h4zm0 75.641h-4V22.198h4zm0 75.641h-4V97.839h4zm0 75.641h-4V173.48h4zm0 75.641h-4v-44.495h4zm0 75.641h-4v-44.495h4zm0 75.64h-4v-44.494h4zm0 75.642h-4v-44.495h4zm0 75.641h-4v-44.495h4zm0 75.64h-4v-44.494h4zm0 75.642h-4v-44.495h4zm0 75.641h-4v-44.495h4zm0 75.641h-4v-44.495h4zm0 75.641h-4V929.89h4zm0 75.645h-4v-44.5h4zm0 53.39h-4v-22.25h4zM515.601 45.58h-4V24.064h4zm0 73.149h-4v-43.03h4zm0 73.149h-4v-43.029h4zm0 73.15h-4v-43.029h4zm0 73.15h-4v-43.029h4zm0 73.149h-4v-43.029h4zm0 73.15h-4v-43.029h4zm0 73.149h-4v-43.029h4zm0 73.15h-4v-43.029h4zm0 73.15h-4v-43.029h4zm0 73.15h-4v-43.03h4zm0 73.149h-4v-43.029h4zm0 73.149h-4v-43.029h4zm0 73.15h-4v-43.03h4zm0 51.636h-4v-21.52h4zM545.905-8.948h-4v-22.247h4zm0 75.641h-4V22.198h4zm0 75.641h-4V97.839h4zm0 75.641h-4V173.48h4zm0 75.641h-4v-44.495h4zm0 75.641h-4v-44.495h4zm0 75.64h-4v-44.494h4zm0 75.642h-4v-44.495h4zm0 75.641h-4v-44.495h4zm0 75.64h-4v-44.494h4zm0 75.642h-4v-44.495h4zm0 75.641h-4v-44.495h4zm0 75.641h-4v-44.495h4zm0 75.641h-4V929.89h4zm0 75.645h-4v-44.5h4zm0 53.39h-4v-22.25h4zM576.209 45.58h-4V24.064h4zm0 73.149h-4v-43.03h4zm0 73.149h-4v-43.029h4zm0 73.15h-4v-43.029h4zm0 73.15h-4v-43.029h4zm0 73.149h-4v-43.029h4zm0 73.15h-4v-43.029h4zm0 73.149h-4v-43.029h4zm0 73.15h-4v-43.029h4zm0 73.15h-4v-43.029h4zm0 73.15h-4v-43.03h4zm0 73.149h-4v-43.029h4zm0 73.149h-4v-43.029h4zm0 73.15h-4v-43.03h4zm0 51.636h-4v-21.52h4zM606.513-8.948h-4v-22.247h4zm0 75.641h-4V22.198h4zm0 75.641h-4V97.839h4zm0 75.641h-4V173.48h4zm0 75.641h-4v-44.495h4zm0 75.641h-4v-44.495h4zm0 75.64h-4v-44.494h4zm0 75.642h-4v-44.495h4zm0 75.641h-4v-44.495h4zm0 75.64h-4v-44.494h4zm0 75.642h-4v-44.495h4zm0 75.641h-4v-44.495h4zm0 75.641h-4v-44.495h4zm0 75.641h-4V929.89h4zm0 75.645h-4v-44.5h4zm0 53.39h-4v-22.25h4zM636.817 45.58h-4V24.064h4zm0 73.149h-4v-43.03h4zm0 73.149h-4v-43.029h4zm0 73.15h-4v-43.029h4zm0 73.15h-4v-43.029h4zm0 73.149h-4v-43.029h4zm0 73.15h-4v-43.029h4zm0 73.149h-4v-43.029h4zm0 73.15h-4v-43.029h4zm0 73.15h-4v-43.029h4zm0 73.15h-4v-43.03h4zm0 73.149h-4v-43.029h4zm0 73.149h-4v-43.029h4zm0 73.15h-4v-43.03h4zm0 51.636h-4v-21.52h4zM667.12-8.948h-4v-22.247h4zm0 75.641h-4V22.198h4zm0 75.641h-4V97.839h4zm0 75.641h-4V173.48h4zm0 75.641h-4v-44.495h4zm0 75.641h-4v-44.495h4zm0 75.64h-4v-44.494h4zm0 75.642h-4v-44.495h4zm0 75.641h-4v-44.495h4zm0 75.64h-4v-44.494h4zm0 75.642h-4v-44.495h4zm0 75.641h-4v-44.495h4zm0 75.641h-4v-44.495h4zm0 75.641h-4V929.89h4zm0 75.645h-4v-44.5h4zm0 53.39h-4v-22.25h4zM697.425 45.58h-4V24.064h4zm0 73.149h-4v-43.03h4zm0 73.149h-4v-43.029h4zm0 73.15h-4v-43.029h4zm0 73.15h-4v-43.029h4zm0 73.149h-4v-43.029h4zm0 73.15h-4v-43.029h4zm0 73.149h-4v-43.029h4zm0 73.15h-4v-43.029h4zm0 73.15h-4v-43.029h4zm0 73.15h-4v-43.03h4zm0 73.149h-4v-43.029h4zm0 73.149h-4v-43.029h4zm0 73.15h-4v-43.03h4zm0 51.636h-4v-21.52h4zM727.728-8.948h-4v-22.247h4zm0 75.641h-4V22.198h4zm0 75.641h-4V97.839h4zm0 75.641h-4V173.48h4zm0 75.641h-4v-44.495h4zm0 75.641h-4v-44.495h4zm0 75.64h-4v-44.494h4zm0 75.642h-4v-44.495h4zm0 75.641h-4v-44.495h4zm0 75.64h-4v-44.494h4zm0 75.642h-4v-44.495h4zm0 75.641h-4v-44.495h4zm0 75.641h-4v-44.495h4zm0 75.641h-4V929.89h4zm0 75.645h-4v-44.5h4zm0 53.39h-4v-22.25h4zM758.033 45.58h-4V24.064h4zm0 73.149h-4v-43.03h4zm0 73.149h-4v-43.029h4zm0 73.15h-4v-43.029h4zm0 73.15h-4v-43.029h4zm0 73.149h-4v-43.029h4zm0 73.15h-4v-43.029h4zm0 73.149h-4v-43.029h4zm0 73.15h-4v-43.029h4zm0 73.15h-4v-43.029h4zm0 73.15h-4v-43.03h4zm0 73.149h-4v-43.029h4zm0 73.149h-4v-43.029h4zm0 73.15h-4v-43.03h4zm0 51.636h-4v-21.52h4zM788.336-8.948h-4v-22.247h4zm0 75.641h-4V22.198h4zm0 75.641h-4V97.839h4zm0 75.641h-4V173.48h4zm0 75.641h-4v-44.495h4zm0 75.641h-4v-44.495h4zm0 75.64h-4v-44.494h4zm0 75.642h-4v-44.495h4zm0 75.641h-4v-44.495h4zm0 75.64h-4v-44.494h4zm0 75.642h-4v-44.495h4zm0 75.641h-4v-44.495h4zm0 75.641h-4v-44.495h4zm0 75.641h-4V929.89h4zm0 75.645h-4v-44.5h4zm0 53.39h-4v-22.25h4zM818.64 45.58h-4V24.064h4zm0 73.149h-4v-43.03h4zm0 73.149h-4v-43.029h4zm0 73.15h-4v-43.029h4zm0 73.15h-4v-43.029h4zm0 73.149h-4v-43.029h4zm0 73.15h-4v-43.029h4zm0 73.149h-4v-43.029h4zm0 73.15h-4v-43.029h4zm0 73.15h-4v-43.029h4zm0 73.15h-4v-43.03h4zm0 73.149h-4v-43.029h4zm0 73.149h-4v-43.029h4zm0 73.15h-4v-43.03h4zm0 51.636h-4v-21.52h4zM848.944-8.948h-4v-22.247h4zm0 75.641h-4V22.198h4zm0 75.641h-4V97.839h4zm0 75.641h-4V173.48h4zm0 75.641h-4v-44.495h4zm0 75.641h-4v-44.495h4zm0 75.64h-4v-44.494h4zm0 75.642h-4v-44.495h4zm0 75.641h-4v-44.495h4zm0 75.64h-4v-44.494h4zm0 75.642h-4v-44.495h4zm0 75.641h-4v-44.495h4zm0 75.641h-4v-44.495h4zm0 75.641h-4V929.89h4zm0 75.645h-4v-44.5h4zm0 53.39h-4v-22.25h4zM879.248 45.58h-4V24.064h4zm0 73.149h-4v-43.03h4zm0 73.149h-4v-43.029h4zm0 73.15h-4v-43.029h4zm0 73.15h-4v-43.029h4zm0 73.149h-4v-43.029h4zm0 73.15h-4v-43.029h4zm0 73.149h-4v-43.029h4zm0 73.15h-4v-43.029h4zm0 73.15h-4v-43.029h4zm0 73.15h-4v-43.03h4zm0 73.149h-4v-43.029h4zm0 73.149h-4v-43.029h4zm0 73.15h-4v-43.03h4zm0 51.636h-4v-21.52h4zM909.552-8.948h-4v-22.247h4zm0 75.641h-4V22.198h4zm0 75.641h-4V97.839h4zm0 75.641h-4V173.48h4zm0 75.641h-4v-44.495h4zm0 75.641h-4v-44.495h4zm0 75.64h-4v-44.494h4zm0 75.642h-4v-44.495h4zm0 75.641h-4v-44.495h4zm0 75.64h-4v-44.494h4zm0 75.642h-4v-44.495h4zm0 75.641h-4v-44.495h4zm0 75.641h-4v-44.495h4zm0 75.641h-4V929.89h4zm0 75.645h-4v-44.5h4zm0 53.39h-4v-22.25h4zM939.856 45.58h-4V24.064h4zm0 73.149h-4v-43.03h4zm0 73.149h-4v-43.029h4zm0 73.15h-4v-43.029h4zm0 73.15h-4v-43.029h4zm0 73.149h-4v-43.029h4zm0 73.15h-4v-43.029h4zm0 73.149h-4v-43.029h4zm0 73.15h-4v-43.029h4zm0 73.15h-4v-43.029h4zm0 73.15h-4v-43.03h4zm0 73.149h-4v-43.029h4zm0 73.149h-4v-43.029h4zm0 73.15h-4v-43.03h4zm0 51.636h-4v-21.52h4zM970.16-8.948h-4v-22.247h4zm0 75.641h-4V22.198h4zm0 75.641h-4V97.839h4zm0 75.641h-4V173.48h4zm0 75.641h-4v-44.495h4zm0 75.641h-4v-44.495h4zm0 75.64h-4v-44.494h4zm0 75.642h-4v-44.495h4zm0 75.641h-4v-44.495h4zm0 75.64h-4v-44.494h4zm0 75.642h-4v-44.495h4zm0 75.641h-4v-44.495h4zm0 75.641h-4v-44.495h4zm0 75.641h-4V929.89h4zm0 75.645h-4v-44.5h4zm0 53.39h-4v-22.25h4zm30.3-1057.84h-3.997V24.064h3.997zm0 73.149h-3.997v-43.03h3.997zm0 73.149h-3.997v-43.029h3.997zm0 73.15h-3.997v-43.029h3.997zm0 73.15h-3.997v-43.029h3.997zm0 73.149h-3.997v-43.029h3.997zm0 73.15h-3.997v-43.029h3.997zm0 73.149h-3.997v-43.029h3.997zm0 73.15h-3.997v-43.029h3.997zm0 73.15h-3.997v-43.029h3.997zm0 73.15h-3.997v-43.03h3.997zm0 73.149h-3.997v-43.029h3.997zm0 73.149h-3.997v-43.029h3.997zm0 73.15h-3.997v-43.03h3.997zm0 51.636h-3.997v-21.52h3.997z"/><path fill="#fff" d="m261.688 463.625 99.679-152.416 574.894 35.351 73.019 117.065v616.625H261.688z"/><path fill="#000F47" d="M526.572 777.299c0 29.367 23.798 53.16 53.172 53.16s53.172-23.793 53.172-53.16V410.701h4v366.598c0 31.577-25.589 57.16-57.172 57.16s-57.172-25.583-57.172-57.16z"/><path fill="#FFBF00" d="M263.41 476.082c9.709-30.184 38.015-52.036 71.42-52.036s61.71 21.852 71.419 52.036h7.204c9.709-30.184 38.015-52.036 71.42-52.036s61.71 21.852 71.419 52.036h7.204c9.709-30.184 38.015-52.036 71.42-52.036s61.711 21.852 71.42 52.036h7.204c9.708-30.184 38.015-52.036 71.419-52.036 33.405 0 61.711 21.852 71.42 52.036h7.204c9.709-30.184 38.015-52.036 71.419-52.036 33.405 0 61.711 21.852 71.418 52.036h2.88c-11.9-196.419-174.954-352.06-374.384-352.06s-362.507 155.641-374.388 352.06z"/></g><defs><clipPath id="a"><path fill="#fff" d="M0 0h1080v1080H0z"/></clipPath></defs></svg>