<svg xmlns="http://www.w3.org/2000/svg" fill="none" viewBox="0 0 1080 1080"><g clip-path="url(#a)"><path fill="#fff" d="M1080 1080 278.877 245.898l43.572-95.779L1080 169.387z"/><path fill="#CEECFF" d="m278.043 245.794 44.911-95.758-60.281-1.259L105.074 82l-23.365 50.607 152.982 67.157z"/><path fill="#FFBF00" d="M530.23 252.762h256.734v253.996H530.23zm243.146 507.992 227.434 236.792V760.754z"/><path fill="#CEECFF" d="M323.391 504.891v256.054h-124.5v257.915H1002.5V997.5h-4v17.36H202.891V764.945h124.5V508.891H531.5l-3.843-4z"/><path fill="#CEECFF" d="M601.185 507v74.474l172.424 179.522h84.31V507zm-71.529 0L580 559.417V507z"/></g><defs><clipPath id="a"><path fill="#fff" d="M0 0h1080v1080H0z"/></clipPath></defs></svg>