<svg xmlns="http://www.w3.org/2000/svg" fill="none" viewBox="0 0 1080 1080"><path fill="#fff" d="M1000.42 754.695c0 45.123-36.722 81.702-82.017 81.702s-82.014-36.579-82.014-81.702z"/><path fill="#fff" d="M836.389 576.948h164.031v177.75H836.389zm80.133 202.699 63.858 223.363c2.848 9.96-4.631 19.87-14.991 19.87h-97.733c-10.36 0-17.839-9.91-14.991-19.87z"/><path fill="#000F47" d="M566.264 890.653c-.001-54.253-32.898-100.831-79.849-120.86l-3.568-1.523 45.666-116.844H350.104l44.592 114.096-3.884 1.384c-50.843 18.126-87.227 66.692-87.227 123.747 0 72.537 58.802 131.337 131.339 131.337v4c-74.746 0-135.339-60.591-135.339-135.337 0-58.799 37.498-108.839 89.885-127.514l-45.223-115.713h190.124l-46.387 118.687c48.373 20.636 82.279 68.628 82.28 124.54 0 74.746-60.594 135.337-135.34 135.337v-4c72.536 0 131.34-58.8 131.34-131.337"/><path fill="#fff" d="M272.665 941.195c0 20.929-12.419 38.992-30.371 47.384h32.865c8.267 0 14.968 6.702 14.968 14.971v7.48c0 8.27-6.701 14.97-14.968 14.97H164.767c-8.267 0-14.968-6.7-14.968-14.97v-7.48c0-8.269 6.701-14.971 14.968-14.971h32.244c-17.953-8.392-30.371-26.455-30.371-47.384zm0-.015H166.64V576.948h106.025z"/><path fill="#FFBF00" d="m480.611 463.94-44.119-85.455 42.388-10.702zm-45.91-84.823-45.903 84.51 3.749-96.099zm-42.681-12.248-80.43 52.728 48.778-82.885zm166.515 52.728-80.43-52.728 31.652-30.157zm-198.559-84.762-95.971 6.218 83.303-48.061zm246.138 6.218-95.97-6.218 12.668-41.843zm-246.138-92.949-12.668 41.843-83.303-48.06zm162.836 41.843-12.668-41.843 95.97-6.217zM433.52 204.2l-42.009 11.548.509.334-31.652 30.156-48.778-82.884 79.769 52.295-3.743-95.959zm76.237 42.038-31.652-30.156 80.43-52.728zm-32.057-30.74-42.388-10.701 44.12-85.455z"/><path fill="#fff" d="m435.179 203.481 44.01 11.793 32.217 32.217 11.792 44.009-11.792 44.01-32.217 32.217-44.01 11.792-44.009-11.792-32.218-32.217-11.792-44.01 11.792-44.009 32.218-32.217z"/><path fill="#000F47" d="M482.556 291.391c0 26.227-21.261 47.488-47.487 47.488s-47.488-21.261-47.488-47.488c0-26.226 21.261-47.487 47.488-47.487 26.226 0 47.487 21.261 47.487 47.487m321.086 138.947c0 7.379-24.643 13.36-55.043 13.36s-55.043-5.981-55.043-13.36 24.643-13.36 55.043-13.36 55.043 5.982 55.043 13.36m13.361-13.347c-7.378 0-13.36-24.644-13.36-55.043s5.982-55.044 13.36-55.044c7.379 0 13.36 24.644 13.36 55.044s-5.981 55.043-13.36 55.043m122.913 13.347c0 7.379-24.525 13.36-54.777 13.36s-54.776-5.981-54.776-13.36 24.524-13.36 54.776-13.36 54.777 5.982 54.777 13.36M817.285 553.25c-7.378 0-13.36-24.524-13.36-54.776s5.982-54.776 13.36-54.776c7.379 0 13.361 24.524 13.361 54.776s-5.982 54.776-13.361 54.776m-9.997-132.243c-5.217 5.217-26.873-7.979-48.368-29.475s-34.692-43.151-29.475-48.368c5.218-5.218 26.873 7.978 48.369 29.474s34.692 43.151 29.474 48.369m18.892 0c-5.218-5.217 7.978-26.873 29.474-48.368s43.151-34.692 48.369-29.475c5.217 5.218-7.979 26.873-29.475 48.369s-43.151 34.692-48.368 29.474"/><path fill="#000F47" d="M903.652 517.355c-5.217 5.217-26.788-7.895-48.179-29.286s-34.503-42.962-29.286-48.179c5.218-5.218 26.788 7.894 48.18 29.285 21.391 21.392 34.503 42.962 29.285 48.18m-173.637.197c-5.218-5.217 7.894-26.788 29.285-48.18 21.392-21.391 42.963-34.503 48.18-29.285 5.217 5.217-7.894 26.788-29.286 48.179-21.391 21.392-42.962 34.503-48.179 29.286m-590.598-48.079c8.782-3.061 18.384 1.577 21.445 10.359s-1.577 18.384-10.36 21.445-18.383-1.577-21.444-10.36 1.577-18.383 10.359-21.444m44.166-15.383c8.783-3.061 18.384 1.577 21.445 10.36s-1.577 18.383-10.36 21.444-18.383-1.577-21.444-10.359 1.577-18.384 10.359-21.445m-79.624-10.564c8.783-3.061 18.384 1.577 21.445 10.359s-1.578 18.382-10.36 21.443-18.383-1.576-21.444-10.358 1.577-18.383 10.359-21.444m44.157-15.389c8.782-3.061 18.383 1.577 21.444 10.359s-1.577 18.383-10.359 21.444-18.384-1.577-21.445-10.359 1.577-18.383 10.36-21.444m50.058-17.462c8.782-3.061 18.383 1.577 21.444 10.36s-1.577 18.383-10.359 21.444-18.383-1.577-21.444-10.36 1.577-18.383 10.359-21.444m-82.776-10.109c8.782-3.061 18.383 1.577 21.444 10.359s-1.577 18.382-10.359 21.443-18.383-1.576-21.445-10.358c-3.061-8.782 1.578-18.383 10.36-21.444m44.166-15.399c8.782-3.061 18.383 1.577 21.444 10.36s-1.577 18.382-10.359 21.443-18.383-1.576-21.445-10.358c-3.061-8.783 1.578-18.384 10.36-21.445m-80.65-13.495c8.782-3.061 18.43 1.71 21.547 10.655s-1.474 18.677-10.257 21.738-18.429-1.709-21.546-10.654 1.474-18.678 10.256-21.739m44.172-15.403c8.782-3.061 18.429 1.708 21.547 10.653s-1.474 18.678-10.257 21.739-18.429-1.709-21.547-10.654c-3.117-8.945 1.475-18.677 10.257-21.738m50.059-17.434c8.782-3.061 18.429 1.709 21.547 10.654 3.117 8.945-1.475 18.678-10.257 21.739s-18.429-1.71-21.547-10.654c-3.118-8.945 1.475-18.678 10.257-21.739m-82.782-10.123c8.782-3.06 18.429 1.71 21.546 10.655s-1.474 18.677-10.256 21.738-18.43-1.709-21.547-10.653 1.474-18.679 10.257-21.74m44.164-15.395c8.782-3.061 18.429 1.709 21.547 10.654 3.117 8.945-1.475 18.677-10.257 21.738s-18.429-1.708-21.547-10.653 1.474-18.678 10.257-21.739m-32.733-27.554c8.782-3.061 18.383 1.577 21.444 10.359s-1.577 18.383-10.359 21.444-18.383-1.577-21.444-10.359 1.577-18.383 10.359-21.444"/><path fill="#fff" d="M978.526 505.284c3.128 3.128-4.784 16.113-17.673 29.002s-25.873 20.801-29.001 17.672 4.784-16.112 17.673-29.001 25.873-20.801 29.001-17.673m.012-11.338c-3.128 3.128-16.113-4.785-29.001-17.673-12.889-12.889-20.801-25.873-17.673-29.002s16.113 4.784 29.001 17.673 20.802 25.873 17.673 29.002m57.782-46.44c3.12 3.128-4.74 16.062-17.56 28.888-12.83 12.826-25.764 20.688-28.893 17.559-3.128-3.128 4.734-16.062 17.563-28.888 12.82-12.826 25.76-20.688 28.89-17.559m.11 104.111c-3.13 3.129-16.07-4.733-28.89-17.559-12.827-12.826-20.689-25.76-17.561-28.888s16.061 4.733 28.891 17.559c12.82 12.826 20.69 25.76 17.56 28.888m-44.092-84.613c-4.506 4.506-11.713 4.604-16.097.22s-4.286-11.591.22-16.097 11.713-4.605 16.098-.221 4.285 11.591-.221 16.098m-38.369 40.438c-4.506 4.506-11.713 4.604-16.097.22s-4.286-11.591.22-16.097 11.713-4.605 16.097-.221 4.286 11.591-.22 16.098m76.751 0c-4.51 4.506-11.72 4.604-16.1.22-4.39-4.384-4.29-11.591.22-16.097s11.71-4.605 16.1-.221c4.38 4.384 4.28 11.591-.22 16.098m-38.382 41.91c-4.506 4.506-11.713 4.604-16.097.22s-4.286-11.591.22-16.097 11.713-4.605 16.098-.221 4.285 11.592-.221 16.098"/><path fill="#000F47" d="M965.483 553.875c1.877.642 1.893.648 1.893.649l-.002.003-.005.016-.022.066-.091.268-.356 1.067c-.312.946-.772 2.354-1.359 4.199a695 695 0 0 0-4.89 16.093c-4.063 13.939-9.521 34.014-15.087 58.539-11.133 49.061-22.695 115.887-24.429 187.009l-3.998-.097c1.743-71.471 13.355-138.574 24.526-187.796 5.586-24.616 11.065-44.77 15.148-58.775a697 697 0 0 1 4.918-16.186 386 386 0 0 1 1.83-5.607l.024-.07.006-.019.002-.004c0-.002 0-.002 1.892.645M234 720.537c-7.047-54.293-17.237-103.895-28.684-143.363-5.723-19.735-11.753-36.911-17.849-50.859-6.109-13.978-12.235-24.599-18.108-31.318l3.013-2.632c6.269 7.172 12.589 18.227 18.76 32.348 6.185 14.151 12.27 31.498 18.026 51.347 11.513 39.698 21.74 89.505 28.809 143.963 8.68 66.872 10.966 128.194 7.624 173.298-1.67 22.535-4.752 41.129-9.197 54.369-2.222 6.616-4.819 12.006-7.832 15.894-3.019 3.894-6.583 6.436-10.72 6.973l-.515-3.967c2.737-.355 5.445-2.067 8.073-5.457 2.632-3.396 5.054-8.321 7.201-14.716 4.292-12.781 7.341-30.995 9.001-53.392 3.317-44.761 1.054-105.8-7.602-172.488"/><path fill="#fff" d="M381.095 479.623c28.356 26.158 37.332 62.551 20.049 81.287-17.283 18.735-54.28 12.717-82.636-13.441s-37.332-62.551-20.049-81.286 54.28-12.718 82.636 13.44"/><path fill="#000F47" d="m429.985 579.171-2.589 3.048-82.951-70.476 2.59-3.049z"/><path fill="#000F47" d="m436.932 406.117-16.216 568.8-3.998-.115 16.216-568.799z"/><mask id="a" width="272" height="284" x="541" y="739" maskUnits="userSpaceOnUse" style="mask-type:alpha"><path fill="#B3ACA2" d="M812.666 739.711c0 71.535-55.501 130.104-125.791 135.003 6.499 2.839 11.041 9.323 11.041 16.868 0 8.149-5.297 15.058-12.636 17.477l63.639 113.661H610.106l63.639-113.663c-7.334-2.421-12.627-9.329-12.627-17.475 0-7.358 4.32-13.707 10.562-16.65-72.127-2.961-129.693-62.367-129.693-135.221 77.82.001 135.34-.002 270.679 0"/></mask><g mask="url(#a)"><path fill="#fff" d="M567.807 819.241c-16.239-22.325-25.82-49.805-25.82-79.524h25.82zm36.044 34.148a136.1 136.1 0 0 1-32.044-28.921v-84.751h32.044zm36.675 16.6a134.6 134.6 0 0 1-32.675-14.107V739.717h32.675zm-30.413 152.721 30.413-54.314v54.314zm34.413 0v-61.457l29.22-52.187c-7.333-2.421-12.626-9.328-12.626-17.472 0-7.363 4.325-13.716 10.572-16.657a135.3 135.3 0 0 1-27.166-3.888V739.717h32.043v282.993zm36.043 0V739.717h32.676v130.514a135 135 0 0 1-26.379 4.49c6.505 2.836 11.052 9.323 11.052 16.873 0 8.144-5.293 15.051-12.626 17.472l27.953 49.923v63.721zm68.719-168.356a134.6 134.6 0 0 1-32.043 14.713v-129.35h32.043zm-32.043 168.356v-56.576l31.681 56.576zm68.719-202.269a136.1 136.1 0 0 1-32.676 31.298V739.717h32.676zm26.702-80.724c0 27.764-8.362 53.574-22.702 75.052v-75.052z"/></g><path fill="#000F47" d="m846.937 492.567.009.02.036.081.14.315q.186.417.543 1.233a387 387 0 0 1 2.052 4.8 644 644 0 0 1 7.32 18.268c6.061 15.776 14.157 38.413 22.301 65.881 16.283 54.919 32.784 129.219 33.577 206.616l-4 .041c-.788-76.894-17.188-150.803-33.412-205.521-8.11-27.351-16.17-49.888-22.2-65.583a638 638 0 0 0-7.274-18.153 379 379 0 0 0-2.03-4.749 237 237 0 0 0-.667-1.512l-.034-.075-.008-.018-.002-.004c.002-.002.061-.029 1.822-.825a171 171 0 0 1 1.824-.821z"/><path fill="#000F47" fill-rule="evenodd" d="M545.496 566.351c15.472 0 29.052 8.096 36.739 20.28 7.688-12.184 21.268-20.279 36.74-20.279 23.975 0 43.412 19.436 43.412 43.411 0 15.468-8.091 29.044-20.27 36.733 12.179 7.689 20.27 21.265 20.27 36.732 0 23.975-19.437 43.411-43.412 43.411-15.472 0-29.052-8.095-36.74-20.28-7.687 12.185-21.267 20.28-36.739 20.28-23.975 0-43.411-19.436-43.411-43.411 0-15.467 8.09-29.043 20.269-36.732-12.179-7.689-20.269-21.266-20.269-36.733 0-23.975 19.436-43.412 43.411-43.412m36.739 66.543a43.6 43.6 0 0 1-13.597 13.602 43.6 43.6 0 0 1 13.597 13.6 43.6 43.6 0 0 1 13.597-13.6 43.64 43.64 0 0 1-13.597-13.602" clip-rule="evenodd"/><path fill="#fff" fill-rule="evenodd" d="M735.538 701.319c7.338 7.337 7.338 19.235 0 26.573-4.734 4.734-11.366 6.412-17.447 5.038 1.375 6.081-.304 12.713-5.039 17.447-7.338 7.338-19.234 7.338-26.571 0-4.735-4.734-6.414-11.366-5.039-17.447-6.081 1.374-12.713-.304-17.447-5.038-7.338-7.338-7.338-19.236 0-26.573 4.734-4.734 11.365-6.414 17.446-5.039-1.374-6.081.305-12.713 5.039-17.447 7.338-7.337 19.235-7.337 26.573 0 4.734 4.734 6.413 11.366 5.039 17.447 6.081-1.375 12.712.305 17.446 5.039m-31.611 9.126a18.9 18.9 0 0 1-8.321 0 18.9 18.9 0 0 1 0 8.321 18.9 18.9 0 0 1 8.321 0 18.9 18.9 0 0 1 0-8.321" clip-rule="evenodd"/><path fill="#000F47" d="M773.231 715.237c-1.657 7.323.366 15.293 6.055 20.982l-2.828 2.828c-6.701-6.7-9.076-16.087-7.129-24.693-8.605 1.947-17.991-.426-24.69-7.126l2.828-2.828c5.688 5.688 13.656 7.71 20.98 6.053l6.183-1.399zm37.997 20.982c5.688-5.689 7.711-13.658 6.053-20.982l-1.399-6.183 6.183 1.399c7.095 1.605 14.796-.243 20.442-5.531l.54-.522c8.682-8.683 8.818-22.676.407-31.525l-.407-.417c-5.688-5.689-13.657-7.712-20.98-6.056l-6.183 1.399 1.399-6.183c1.657-7.323-.367-15.292-6.055-20.98-8.821-8.82-23.122-8.82-31.943 0-5.688 5.689-7.711 13.657-6.054 20.98l1.398 6.183-6.182-1.399c-7.323-1.656-15.291.367-20.979 6.056-8.821 8.82-8.821 23.121-.001 31.942l-2.828 2.828c-10.383-10.383-10.382-27.216 0-37.599 6.7-6.699 16.085-9.075 24.69-7.128-1.947-8.606.428-17.991 7.128-24.691 10.383-10.382 27.216-10.383 37.599-.001 6.7 6.7 9.075 16.086 7.128 24.692 8.606-1.947 17.992.428 24.692 7.128 10.382 10.383 10.382 27.217-.001 37.599-6.7 6.7-16.086 9.074-24.692 7.126 1.948 8.606-.427 17.993-7.127 24.693-10.383 10.383-27.216 10.382-37.598 0l2.828-2.828c8.683 8.682 22.675 8.818 31.524.406zm-6.177-52.801a22.7 22.7 0 0 0 0 10.02l1.399 6.183-6.183-1.399a22.7 22.7 0 0 0-10.019-.001l-6.183 1.399 1.399-6.183a22.7 22.7 0 0 0 0-10.019l-1.399-6.183 6.183 1.399c3.295.746 6.725.746 10.019 0l6.183-1.399zm-3.902-.882a26.7 26.7 0 0 1-11.783 0 26.7 26.7 0 0 1-.001 11.784 26.7 26.7 0 0 1 11.784.001 26.7 26.7 0 0 1 0-11.785"/></svg>