<svg xmlns="http://www.w3.org/2000/svg" fill="none" viewBox="0 0 1080 1080"><g clip-path="url(#a)"><path fill="#fff" d="m744.782 1220.21 12.802 31.42H260.062l-1.164-.58 22.694-52.95 53.535 22.11 22.112-54.12-53.535-22.11 22.113-53.53 53.534 22.11 22.694-53.53-54.116-22.7 22.694-53.533 53.534 22.113 22.112-53.536-53.534-22.112 22.112-54.116 54.116 22.694 22.112-54.116-54.116-22.112 22.694-54.117 53.534 22.694 22.112-54.116-53.534-22.112h116.379l22.112 54.116-53.534 22.112 22.112 53.535 54.116-22.112 22.112 53.534-53.534 22.694 22.112 53.534 53.534-22.112 22.112 53.535-53.534 22.113 22.112 54.12 54.116-22.12 22.112 53.54-53.534 22.11 22.112 54.12 53.534-22.7 22.694 54.12z"/><path fill="#CEECFF" d="M571.055-71.6v60.19h-58.19v54.19h58.19v62.19h-58.19v54.189h58.19v62.19h-58.19v54.189h58.19v60.19h-4v-56.19h-58.19v-62.189h58.19v-54.19h-58.19V100.97h58.19V46.78h-58.19v-62.19h58.19V-71.6z"/><path fill="#CEECFF" d="M423.58 306.633v58.189l87.285 174.569h58.189l87.285-174.569v-58.189z"/><path fill="#FFBF00" d="M481.77 423.012V713.96h116.379V423.012zm87.284 261.853h-58.19v-58.189h58.19z"/><path fill="#CEECFF" d="M510.865 539.393h58.19V306.634h-58.19z"/></g><defs><clipPath id="a"><path fill="#fff" d="M0 0h1080v1080H0z"/></clipPath></defs></svg>