<svg xmlns="http://www.w3.org/2000/svg" fill="none" viewBox="0 0 1080 1080"><g clip-path="url(#a)"><path fill="#FFBF00" d="M1080 897.98 555.12 523.89H554l.56-.411-.56-.39h1.12L1080 149.039z"/><path fill="#fff" d="M454.368 545.197h-52.001v-42.599h52.001l-10.85-31.313 74.685 52.482h.119l-.059.041.059.043h-.119l-74.685 52.488 10.85-31.14zm-133.789 0h-52.001v-42.599h52.001l-10.85-31.313 74.686 52.482h.119l-.06.041.06.043h-.119l-74.686 52.488 10.85-31.14zm-134.469 0h-52.001v-42.599h52.001l-10.85-31.313 74.686 52.482h.119l-.06.041.06.043h-.119l-74.686 52.488 10.85-31.14zm-134.114 0h-52v-42.599h52l-10.85-31.313 74.686 52.482h.118l-.059.041.059.043h-.118l-74.686 52.488 10.85-31.14zm268.583-110.592h-52.001v-42.6h52.001l-10.85-31.312 74.686 52.482h.119l-.06.04.06.043h-.119l-74.686 52.488 10.85-31.139zm-134.792-.402h-52.001v-42.599h52.001l-10.85-31.313 74.686 52.482h.119l-.06.041.06.043h-.119l-74.686 52.488 10.85-31.14zm-133.791.402h-52v-42.6h52l-10.85-31.312 74.686 52.482h.118l-.059.04.059.043h-.118l-74.686 52.488 10.85-31.139zM186.11 323.199h-52.001v-42.6h52.001l-10.85-31.312 74.686 52.482h.119l-.06.041.06.042h-.119L175.26 354.34l10.85-31.139zm-134.114 0h-52v-42.6h52l-10.85-31.312 74.686 52.482h.118l-.059.041.059.042h-.118L41.146 354.34l10.85-31.139zm0-119.919h-52v-42.6h52l-10.85-31.312 74.686 52.482h.118l-.059.04.059.043h-.118l-74.686 52.488 10.85-31.139zM320.579 656.2l-52.001-.001V613.6h52.001l-10.85-31.313 74.686 52.482h.119l-.06.041.06.043h-.119l-74.686 52.488 10.85-31.139zm-134.469 0-52.001-.001V613.6h52.001l-10.85-31.313 74.686 52.482h.119l-.06.041.06.043h-.119l-74.686 52.488 10.85-31.139zm-134.114 0-52-.001V613.6h52l-10.85-31.313 74.686 52.482h.118l-.059.041.059.043h-.118l-74.686 52.488 10.85-31.139zM186.11 767.198h-52.001v-42.6h52.001l-10.85-31.312 74.686 52.482h.119l-.06.04.06.043h-.119l-74.686 52.488 10.85-31.139zm-134.114 0h-52v-42.6h52l-10.85-31.312 74.686 52.482h.118l-.059.04.059.043h-.118l-74.686 52.488 10.85-31.139zm0 110.994-52-.001v-42.599h52l-10.85-31.313 74.686 52.482h.118l-.059.041.059.043h-.118l-74.686 52.488 10.85-31.139z"/><path fill="#000F47" d="m251.905 407.774-16.091 390.934 206.14 94.044.001-.001c13.267 6.088 28.743-1.345 32.376-15.36l.163-.673 31.433-137.323 71.024 16.26.219.051h2.645l-75.226-400.989zm322.972 343.302-71.958-16.473-32.324 141.222-.001.001c-2.739 11.977-15.803 18.418-26.975 13.288l-.005-.002-203.693-92.927 15.853-385.136 245.638-51.579zM.004 1081.06v-17.5l114.764-149.614 373.79 12.255L607 1081.06z"/></g><defs><clipPath id="a"><path fill="#fff" d="M0 0h1080v1080H0z"/></clipPath></defs></svg>