<svg xmlns="http://www.w3.org/2000/svg" fill="none" viewBox="0 0 1581 1081"><path fill="#fff" d="M1013.3 646.305c33.95-30.716 86.46-29.708 119.19 3.023l430.96 430.952h-244.73l-195.16-195.151L949 711.725l57.38-58.421a91 91 0 0 1 2.96-3.188l.78-.788c.92-.917 1.85-1.808 2.8-2.675l.36-.371z"/><path fill="#000F47" d="M1382.72 1080h-5.66L1039.3 742.234l2.82-2.828zm61.18 0h-5.66l-368.35-368.355 2.82-2.829zm61.18 0h-5.66l-398.94-398.945 2.82-2.828zM393.69 687.78c-21.243 34.153-17.038 79.673 12.615 109.326L689.67 1080.47H1z"/><path fill="#000F47" d="M411.886 672.103c33.152-30.325 84.696-29.446 116.782 2.638l405.73 405.729h-55.525L500.899 702.498l-2.828 2.828 375.146 375.144h-55.524L470.31 733.088l-2.828 2.828 344.555 344.554h-55.529L439.72 763.689l-2.827 2.828 313.959 313.953h-55.527L409.132 794.278c-32.988-32.989-32.99-86.549-.004-119.54l.304-.3.4-.395.3-.29.397-.383.415-.394.254-.238.471-.437zm254.566-129.495c34.74-31.276 88.35-30.197 121.786 3.24L1322.39 1080h-5.66L785.409 548.676c-32.99-32.99-86.552-32.99-119.543 0l-.875.875c-32.112 33.056-31.82 85.958.875 118.654L1077.66 1080H1072L663.038 671.034c-28.059-28.059-33.333-70.325-15.82-103.723L537.291 677.236l-2.828-2.828L662.892 545.98l.146-.147 3.414-3.414z"/><path fill="#000F47" d="M1138.83 1080h-5.65L693.617 640.441l2.828-2.828zm61.19 0h-5.65L724.219 609.852l2.828-2.829zm61.18 0h-5.65L754.809 579.262l2.828-2.828zm-252.49-432.093c34.56-34.545 90.65-34.543 125.2.007l432.36 432.366h-5.65l-429.54-429.537c-32.99-32.989-86.55-32.99-119.54-.004-32.989 32.991-32.988 86.551 0 119.54l310 310.001h-5.65l-307.18-307.173c-27.763-27.766-33.216-69.443-16.356-102.673l-40.918 42.238-2.874-2.783 55.678-57.172a90 90 0 0 1 4.47-4.803z"/><path fill="#FFBF00" d="M879.21 698.55 783 602.34 969.34 416v96.21h96.21z"/></svg>