<svg xmlns="http://www.w3.org/2000/svg" fill="none" viewBox="0 0 1080 1080"><g clip-path="url(#a)"><path fill="#fff" d="M1080 835.104V905h-4v-69.248L939 424.329 802 835.752V905h-4v-69.896L939 411.67z"/><path fill="#CEECFF" d="M1080.46 904.787V1080H797.455V904.787c0-38.912 31.838-70.75 70.75-70.75s70.75 31.838 70.75 70.75c0-38.912 31.838-70.75 70.755-70.75 38.91 0 70.75 31.838 70.75 70.75m-187.005-357.75 45.5-136 45.5 136z"/><path fill="#fff" d="m870.897 765.997.103.308v86.933h-4v-86.282L695.5 253.301 524 766.956v86.282h-4v-86.933l.103-.308L695.5 240.669z"/><path fill="#fff" d="M870.859 853.997V1080H520V853.997c0-48.225 39.472-87.681 87.715-87.681s87.715 39.456 87.715 87.681c0-48.225 39.471-87.681 87.715-87.681 48.243 0 87.714 39.456 87.714 87.681M638.968 410.488l55.966-168.627 55.967 168.627z"/><path fill="#FFBF00" d="M385.429 479.277c55.35 0 100.221-44.871 100.221-100.221s-44.871-100.222-100.221-100.222-100.222 44.871-100.222 100.222 44.871 100.221 100.222 100.221"/></g><defs><clipPath id="a"><path fill="#fff" d="M0 0h1080v1080H0z"/></clipPath></defs></svg>