<svg xmlns="http://www.w3.org/2000/svg" fill="none" viewBox="0 0 1080 1080"><path fill="#FFBF00" d="M359.865 190.832c-113.62 0-205.724 92.103-205.724 205.723 0 34.414 8.462 66.845 23.396 95.352l-53.547 54.679 79.789-16.019c37.732 43.905 93.661 71.712 156.086 71.712 113.62 0 205.724-92.104 205.724-205.724s-92.104-205.723-205.724-205.723"/><path fill="#fff" d="M740.25 374.025H507.096c-30.3 0-54.86 24.559-54.86 54.86v233.153c0 30.301 24.56 54.86 54.86 54.86h180.323l49.426 72.601v-72.601h3.405c30.3 0 54.859-24.559 54.859-54.86V428.885c0-30.301-24.559-54.86-54.859-54.86"/><path fill="#000F47" d="M533.052 553.452c0-39.671-32.157-71.828-71.827-71.828-25.162 0-47.296 12.949-60.131 32.55l-1.576 2.407-1.707-2.318c-13.08-17.755-34.128-29.281-57.867-29.281-39.67 0-71.827 32.157-71.827 71.827v2h-2c-39.67 0-71.828 32.158-71.828 71.828s32.158 71.829 71.828 71.829a72 72 0 0 0 12.379-1.087l2.19-.383.15 2.217c2.1 30.823 27.753 55.181 59.108 55.181 9.96 0 19.338-2.464 27.576-6.807l1.369-.722 1.043 1.145c10.843 11.916 26.466 19.391 43.84 19.391 21.685 0 40.636-11.649 50.97-29.038l.816-1.372 1.518.49a71.7 71.7 0 0 0 22.05 3.466c39.671 0 71.828-32.158 71.828-71.828 0-30.325-18.799-56.265-45.386-66.793l-.1.108-1.349-.676.816-1.87-1.363-1.279c12.076-12.856 19.48-30.137 19.48-49.157m4 0c0 19.03-7.026 36.414-18.608 49.728 27.318 11.459 46.51 38.455 46.51 69.939 0 41.88-33.948 75.828-75.828 75.828a75.7 75.7 0 0 1-21.772-3.192c-11.191 17.801-30.992 29.646-53.582 29.646-17.996 0-34.237-7.517-45.754-19.578a62.94 62.94 0 0 1-28.074 6.571c-32.733 0-59.64-24.863-62.913-56.731a75 75 0 0 1-10.914.803c-41.88 0-75.828-33.949-75.828-75.829 0-41.219 32.886-74.755 73.853-75.802 1.047-40.967 34.583-73.853 75.802-73.853 24.059 0 45.496 11.219 59.382 28.686 13.735-19.379 36.334-32.044 61.899-32.044 41.879 0 75.827 33.948 75.827 75.828M393.56 817.864c0-16.772-13.597-30.368-30.369-30.368s-30.368 13.596-30.368 30.368 13.596 30.369 30.368 30.369 30.369-13.597 30.369-30.369m4 0c0 18.981-15.388 34.369-34.369 34.369s-34.368-15.388-34.368-34.369 15.387-34.368 34.368-34.368 34.369 15.387 34.369 34.368m-67.817 51.227c0-9.31-7.547-16.858-16.857-16.858-9.311 0-16.859 7.548-16.859 16.858.001 9.311 7.548 16.858 16.859 16.858 9.31 0 16.857-7.547 16.857-16.858m4 0c0 11.52-9.338 20.858-20.857 20.858s-20.858-9.338-20.859-20.858c0-11.519 9.339-20.858 20.859-20.858 11.519 0 20.857 9.339 20.857 20.858M952.82 375.55c0-37.15-24.519-71.102-64.836-95.87-39.864-24.491-94.902-39.796-155.851-40.113h-1.926c-61.715 0-117.493 15.372-157.777 40.121-40.317 24.768-64.836 58.721-64.836 95.871s24.519 71.101 64.836 95.87c40.284 24.748 96.062 40.12 157.777 40.12 24.945 0 48.936-2.512 71.322-7.147l.557-.115 109.888 40.06-44.444-61.802 2.12-1.044c51.055-25.133 83.17-63.457 83.17-105.951m4 0c0 44.074-32.79 83.01-83.291 108.486l49.272 68.516-121.022-44.119c-22.498 4.617-46.568 7.116-71.572 7.116-62.332 0-118.861-15.518-159.871-40.712-40.978-25.174-66.742-60.218-66.742-99.278s25.764-74.105 66.742-99.28c40.571-24.924 96.33-40.375 157.871-40.703v-.016h2c62.332 0 118.861 15.517 159.872 40.711 40.977 25.175 66.741 60.219 66.741 99.279"/></svg>