<svg xmlns="http://www.w3.org/2000/svg" fill="none" viewBox="0 0 1080 1080"><path fill="#000F47" d="M977.633 790.34H299v152.116h678.822V790.529a.18.18 0 0 0-.189-.189"/><path fill="#fff" d="M976.827 636.332H459.965v153.802c0 .079.063.157.157.157h516.72V636.332z"/><path fill="#FFBF00" d="M885.213 104h131.447L885.402 206.424z"/><path fill="#000F47" d="M887.213 104v253.485h-4V104zm91.884 379.459H624.668v152.778h354.429z"/><path fill="#fff" d="M976.814 329.859H784.676v153.487h192.138z"/><path fill="#fff" d="M802.107 439.423v114.316l73.476-71.16z"/><path fill="#000F47" d="M943.282 589.273v114.316l-73.491-71.16zm0 308.483v114.314l-73.491-71.158z"/><path fill="#fff" d="M502.064 747.969v114.332l73.476-71.16z"/></svg>