<svg xmlns="http://www.w3.org/2000/svg" fill="none" viewBox="0 0 1080 1080"><path fill="#fff" d="M540.108 329.206c120.74 0 230.266 53.312 309.806 106.88 39.735 26.757 71.892 53.523 94.114 73.594 11.107 10.03 19.727 18.385 25.567 24.225a447 447 0 0 1 6.422 6.555 402 402 0 0 1-6.431 6.563c-5.831 5.841-14.46 14.195-25.566 24.226-22.223 20.07-54.38 46.828-94.115 73.594-79.531 53.568-189.066 106.88-309.805 106.88s-230.266-53.312-309.797-106.88c-39.735-26.758-71.883-53.524-94.106-73.594-11.107-10.031-19.726-18.385-25.566-24.226a500 500 0 0 1-6.432-6.554 374 374 0 0 1 6.432-6.555c5.831-5.84 14.451-14.195 25.566-24.226 22.223-20.07 54.38-46.827 94.115-73.593 79.531-53.577 189.057-106.889 309.796-106.889m.305 22.794C436.357 352 352 436.358 352 540.414s84.357 188.413 188.413 188.413v-.009c104.057 0 188.414-84.357 188.414-188.414S644.47 352 540.413 352"/><path fill="#FFBF00" d="M540.109 575.819c19.532 0 35.359-15.827 35.359-35.359s-15.827-35.359-35.359-35.359-35.359 15.827-35.359 35.359 15.827 35.359 35.359 35.359"/><path fill="#CEECFF" d="M601.345 540.46c0-48.252-7.054-91.849-18.396-123.312-5.674-15.739-12.383-28.335-19.732-36.959-7.357-8.631-15.165-13.077-23.083-13.077s-15.726 4.446-23.082 13.077c-7.35 8.624-14.059 21.22-19.733 36.959-11.341 31.463-18.395 75.06-18.395 123.312s7.054 91.849 18.395 123.311c5.674 15.74 12.383 28.337 19.733 36.96 7.356 8.631 15.164 13.077 23.082 13.077s15.726-4.445 23.083-13.077c7.349-8.623 14.058-21.22 19.732-36.96 11.342-31.462 18.396-75.059 18.396-123.311m4 0c0 48.59-7.097 92.668-18.633 124.669-5.765 15.992-12.676 29.074-20.451 38.197-7.769 9.115-16.59 14.482-26.127 14.482s-18.358-5.367-26.126-14.482c-7.775-9.123-14.686-22.206-20.451-38.197-11.536-32.001-18.633-76.079-18.633-124.669s7.097-92.667 18.633-124.668c5.765-15.992 12.676-29.075 20.451-38.198 7.768-9.114 16.589-14.482 26.126-14.482s18.358 5.368 26.127 14.482c7.775 9.123 14.686 22.206 20.451 38.198 11.536 32.001 18.633 76.078 18.633 124.668"/><path fill="#CEECFF" d="M570.747 487.452c-41.787-24.126-83.07-39.816-115.988-45.725-16.468-2.956-30.731-3.444-41.874-1.391-11.153 2.055-18.908 6.595-22.867 13.452s-4.012 15.842-.216 26.528c3.794 10.677 11.348 22.785 22.142 35.569 21.576 25.553 55.805 53.46 97.593 77.586 41.787 24.126 83.07 39.816 115.988 45.725 16.468 2.956 30.732 3.445 41.875 1.391 11.153-2.055 18.907-6.593 22.866-13.451 3.959-6.857 4.013-15.842.216-26.529-3.793-10.676-11.348-22.785-22.142-35.568-21.576-25.554-55.805-53.461-97.593-77.587m2-3.464c42.08 24.295 76.704 52.48 98.65 78.471 10.967 12.988 18.842 25.515 22.855 36.81 4.009 11.285 4.247 21.608-.522 29.867-4.768 8.259-13.827 13.215-25.605 15.385-11.788 2.172-26.574 1.616-43.305-1.387-33.482-6.011-75.203-21.903-117.283-46.198s-76.704-52.48-98.649-78.471c-10.967-12.988-18.842-25.515-22.855-36.81-4.009-11.285-4.247-21.608.521-29.867 4.769-8.259 13.828-13.215 25.606-15.385 11.788-2.172 26.573-1.616 43.305 1.387 33.482 6.01 75.202 21.903 117.282 46.198"/><path fill="#CEECFF" d="M690.256 453.785c-3.959-6.858-11.713-11.396-22.866-13.452-11.143-2.053-25.406-1.565-41.873 1.391-32.919 5.909-74.202 21.599-115.99 45.725s-76.017 52.034-97.593 77.587c-10.794 12.784-18.348 24.892-22.141 35.568-3.797 10.687-3.743 19.671.216 26.529 3.959 6.857 11.713 11.396 22.866 13.452 11.143 2.053 25.406 1.565 41.874-1.391 32.918-5.909 74.201-21.599 115.988-45.725s76.018-52.034 97.594-77.587c10.794-12.784 18.348-24.892 22.142-35.568 3.796-10.687 3.742-19.672-.217-26.529m3.464-2c4.769 8.259 4.531 18.582.522 29.867-4.013 11.295-11.888 23.822-22.854 36.81-21.946 25.991-56.57 54.176-98.651 78.471s-83.8 40.188-117.282 46.198c-16.731 3.003-31.517 3.559-43.305 1.387-11.778-2.17-20.837-7.126-25.606-15.385-4.768-8.259-4.53-18.582-.52-29.867 4.012-11.295 11.887-23.822 22.854-36.81 21.946-25.991 56.569-54.176 98.649-78.471s83.801-40.187 117.283-46.198c16.732-3.003 31.517-3.559 43.305-1.387 11.778 2.17 20.837 7.126 25.605 15.385"/><path fill="#FFBF00" d="M634.32 459.376c10.304 0 18.667-8.354 18.667-18.667s-8.354-18.668-18.667-18.668-18.668 8.355-18.668 18.668 8.355 18.667 18.668 18.667M497.435 698.225c10.304 0 18.668-8.354 18.668-18.667s-8.355-18.668-18.668-18.668-18.667 8.355-18.667 18.668 8.354 18.667 18.667 18.667"/></svg>