<svg xmlns="http://www.w3.org/2000/svg" fill="none" viewBox="0 0 1080 1080"><path fill="#CEECFF" fill-rule="evenodd" d="M746.208 645.176 474.994 791.213l43.298 43.297-132.986 71.608-42.877-42.877 1.397-1.399-57.237 30.821-98.995-98.995 247.487-459.619zM345.686 860.841l40.344 40.345 125.632-67.649-40.345-40.345z" clip-rule="evenodd"/><path fill="#FFBF00" d="M654.793 362.857h-37.336l-9.998-211.015h57.332zm-38.459 101.066c10.935 10.935 28.663 10.935 39.598 0 10.934-10.934 10.934-28.663 0-39.598-10.935-10.934-28.663-10.934-39.598 0-10.935 10.935-10.935 28.664 0 39.598"/><path fill="#fff" d="m706.794 399.852-26.396-26.396 142.135-156.278 40.539 40.539zm10.6 62.94v-37.335l211.015-9.999v57.333z"/></svg>