<svg xmlns="http://www.w3.org/2000/svg" fill="none" viewBox="0 0 1080 1080"><g clip-path="url(#a)"><path fill="#CEECFF" d="M841.216 688.495c43.858 0 79.412-35.553 79.412-79.411s-35.554-79.412-79.412-79.412c-43.857 0-79.411 35.554-79.411 79.412s35.554 79.411 79.411 79.411m158.824 0c43.86 0 79.41-35.553 79.41-79.411s-35.55-79.412-79.41-79.412c-43.857 0-79.411 35.554-79.411 79.412s35.554 79.411 79.411 79.411"/><path fill="#CEECFF" d="M843.215 0v529.677h-4V0zM682.392 688.495c43.858 0 79.412-35.553 79.412-79.411s-35.554-79.412-79.412-79.412-79.412 35.554-79.412 79.412 35.554 79.411 79.412 79.411"/><path fill="#CEECFF" d="M684.395 0v529.677h-4V0zm317.645 0v529.677h-4.001V0zM525.457.769l-202.5 489.441-3.695-1.529L521.762-.761z"/><path fill="#FFBF00" d="m309.135 656.457-69.088 28.588 20.117-48.971z"/><path fill="#FFBF00" d="m394.327 519.885-146.733-60.78-60.78 146.734 146.734 60.779z"/></g><defs><clipPath id="a"><path fill="#fff" d="M0 0h1080v1080H0z"/></clipPath></defs></svg>