<svg xmlns="http://www.w3.org/2000/svg" fill="none" viewBox="0 0 1080 1080"><g clip-path="url(#a)"><path fill="#fff" d="M674.2 298.67H405.8v482.67h268.4z"/><path fill="#CEECFF" d="M405.8 781.33 304.51 882.62V228.67l101.29 70z"/><path fill="#FFBF00" d="M405.8 781.33 107.13 1080h865.74L674.2 781.33z"/><path fill="#000F47" d="M340.74 561.96c0-5.373-4.356-9.73-9.729-9.73-5.374 0-9.731 4.357-9.731 9.73.001 5.374 4.357 9.73 9.731 9.73s9.729-4.356 9.729-9.73m4 0c0 7.583-6.147 13.73-13.729 13.73-7.583 0-13.73-6.147-13.731-13.73 0-7.582 6.148-13.73 13.731-13.73 7.582 0 13.729 6.148 13.729 13.73"/></g><defs><clipPath id="a"><path fill="#fff" d="M0 0h1080v1080H0z"/></clipPath></defs></svg>