<svg xmlns="http://www.w3.org/2000/svg" fill="none" viewBox="0 0 1080 1080"><path fill="#fff" d="m304.299 335.877-1.036-4.108c-3.38-13.402 3.191-27.323 15.685-33.233l131.8-62.335a36.17 36.17 0 0 1 21.469-2.971l79.483 13.384z"/><path fill="#fff" d="M505.091 269.423 288.726 376.547c-8.123 4.022-17.972 1.21-22.748-6.493-5.301-8.55-2.362-19.798 6.446-24.661L461.81 240.828a37.37 37.37 0 0 1 23.507-4.258l172.195 25.344z"/><path fill="#fff" d="m458.235 254.119 180.83 3.878 102.738 8.391-316.211 72.757-117.119 69.177c-11.48 6.781-26.303 2.198-31.954-9.877-4.63-9.896-1.516-21.687 7.396-28.006l156.241-110.775a30.14 30.14 0 0 1 18.079-5.545"/><path fill="#fff" d="M671.133 509.789c81.69-4.94 238.333-133.752 306.444-197.54L864.78 153.042l-121.588 96.516-205.403 26.769-104.893 9.118c-14.265 1.24-25.877 11.989-28.212 26.117l-30.438 184.176c-2.078 12.576 7.03 24.245 19.734 25.283 11.163.912 21.201-6.784 23.219-17.8l20.651-112.74c3.536-19.305 21.822-32.267 41.208-29.211l143.595 22.637a13.785 13.785 0 0 1 2.468 26.604l-166.479 59.144c-13.769 4.892-21.407 19.601-17.489 33.678 3.565 12.807 15.684 21.303 28.941 20.306 48.601-3.654 131.935-9.671 201.039-13.85"/><path fill="#000F47" d="M487.312 497.198c.85-10.407-6.898-19.533-17.305-20.383s-19.533 6.898-20.383 17.305 6.897 19.533 17.304 20.383l-.325 3.987-.589-.056c-12.311-1.32-21.391-12.228-20.377-24.64 1.03-12.609 12.086-21.995 24.695-20.965s21.996 12.086 20.967 24.695l-.056.589c-1.321 12.311-12.229 21.391-24.64 20.377l.325-3.987c10.407.85 19.534-6.898 20.384-17.305m-97.552-5.814c.436-5.34-1.585-8.882-4.208-11.258-2.7-2.446-6.094-3.692-8.239-4.14l.817-3.915c2.625.548 6.738 2.037 10.108 5.09 3.446 3.122 6.056 7.842 5.508 14.548-1.08 13.229-10.588 18.123-16.142 20.203l-1.403-3.745c5.079-1.902 12.671-5.919 13.559-16.783"/><path fill="#000F47" d="m865.015 155.728-117.986 95.663-318.188 36.564c-5.23.902-9.714 2.256-13.527 6.057-3.866 3.853-7.286 10.471-9.699 22.463-4.886 24.278-23.136 139.878-29.442 182.427l-3.958-.587c6.302-42.522 24.568-158.231 29.479-182.63 2.484-12.347 6.13-19.855 10.796-24.506 4.707-4.692 10.206-6.226 15.718-7.173l.056-.009.055-.007 317.094-36.439 117.083-94.931z"/><path fill="#FFBF00" d="m775.44 743.741 1.036 4.109c3.38 13.402-3.19 27.323-15.685 33.232l-131.8 62.336a36.17 36.17 0 0 1-21.469 2.97l-79.483-13.383z"/><path fill="#FFBF00" d="m574.647 810.206 216.365-107.124c8.123-4.022 17.972-1.211 22.748 6.493 5.302 8.55 2.362 19.798-6.446 24.66L617.928 838.801a37.37 37.37 0 0 1-23.507 4.258l-172.195-25.344z"/><path fill="#FFBF00" d="m621.495 825.526-180.831-3.878-102.737-8.392L654.138 740.5l117.119-69.178c11.479-6.78 26.303-2.198 31.953 9.878 4.63 9.895 1.516 21.686-7.396 28.005L639.574 819.98a30.14 30.14 0 0 1-18.079 5.546"/><path fill="#FFBF00" d="M408.615 569.84c-81.691 4.94-238.334 133.752-306.445 197.541l112.797 159.206 121.588-96.515 205.403-26.77 104.893-9.118c14.265-1.24 25.877-11.989 28.212-26.117l30.438-184.176c2.079-12.576-7.03-24.245-19.734-25.283-11.163-.911-21.201 6.784-23.219 17.801l-20.651 112.74c-3.536 19.304-21.822 32.266-41.208 29.21l-143.595-22.637a13.785 13.785 0 0 1-2.468-26.604l166.479-59.144c13.769-4.891 21.407-19.601 17.489-33.678-3.565-12.807-15.684-21.302-28.941-20.306-48.601 3.654-131.935 9.671-201.038 13.85"/><path fill="#FFBF00" d="M588.44 582.121c1.03-12.609 12.086-21.996 24.695-20.966s21.996 12.086 20.966 24.695-12.086 21.996-24.695 20.966-21.996-12.086-20.966-24.695"/><path fill="#000F47" d="M592.426 582.446c-.849 10.408 6.899 19.533 17.306 20.383s19.532-6.897 20.382-17.304-6.897-19.534-17.304-20.384l.326-3.987.588.056c12.311 1.321 21.391 12.228 20.377 24.64-1.03 12.609-12.086 21.996-24.695 20.966s-21.996-12.086-20.966-24.695l.056-.589c1.32-12.311 12.228-21.391 24.64-20.378l-.326 3.987c-10.407-.85-19.534 6.898-20.384 17.305m97.561 5.805c-.436 5.339 1.585 8.881 4.208 11.257 2.7 2.446 6.094 3.692 8.239 4.14l-.817 3.915c-2.624-.548-6.738-2.037-10.108-5.09-3.445-3.121-6.056-7.841-5.508-14.548 1.08-13.229 10.588-18.123 16.142-20.203l1.403 3.746c-5.079 1.902-12.671 5.918-13.559 16.783"/><path fill="#000F47" d="m214.723 923.917 117.986-95.664 318.185-36.564c5.231-.902 9.716-2.254 13.531-6.056 3.865-3.853 7.285-10.471 9.698-22.463 4.887-24.278 23.136-139.878 29.442-182.428l3.958.587c-6.302 42.522-24.568 158.231-29.478 182.631-2.485 12.346-6.131 19.854-10.797 24.506-4.707 4.692-10.205 6.225-15.718 7.173l-.055.009-.056.006-317.094 36.44-117.083 94.931z"/></svg>