<svg xmlns="http://www.w3.org/2000/svg" fill="none" viewBox="0 0 1080 1080"><g clip-path="url(#a)"><path fill="#CEECFF" d="M697.48 180c25.181 0 46.864 14.973 56.633 36.501 21.978 1.421 40.844 14.266 50.723 32.656a63 63 0 0 1 4.865-.187c34.33 0 62.16 27.83 62.16 62.16s-27.83 62.16-62.16 62.16a62.4 62.4 0 0 1-13.046-1.373c-10.716 27.207-37.231 46.463-68.244 46.463-34.884 0-64.077-24.362-71.496-57a62 62 0 0 1-20.864 3.59c-34.33 0-62.16-27.83-62.16-62.16 0-34.093 27.446-61.774 61.448-62.156C636.138 207.02 663.654 180 697.48 180"/><path fill="#fff" d="m623.77 456.921-168.46 442.96-3.739-1.422 168.46-442.96z"/><path fill="#fff" d="m576.9 568.108-.54 3.963-186.109-25.34.539-3.962zm-31.269 82.2-.54 3.963-186.1-25.34.539-3.962zm-31.261 82.21-.54 3.963-186.109-25.34.539-3.963zm-31.26 82.21-.54 3.963-186.109-25.34.539-3.963zM662.43 335.72c8.18-12.22 12.97-26.9 12.97-42.71 0-42.5-34.46-76.96-76.96-76.96-26.96 0-50.67 13.88-64.42 34.87-14.01-19.02-36.56-31.37-61.99-31.37-42.5 0-76.96 34.46-76.96 76.96-42.5 0-76.96 34.46-76.96 76.96s34.46 76.96 76.96 76.96c4.53 0 8.95-.41 13.26-1.16 2.26 33.22 29.9 59.47 63.69 59.47 10.73 0 20.84-2.66 29.72-7.34 11.68 12.84 28.52 20.89 47.24 20.89 23.37 0 43.79-12.56 54.93-31.28.97.31 1.96.61 2.95.88a83.7 83.7 0 0 0 41.58 11c46.49 0 84.17-37.69 84.17-84.17 0-41.72-30.36-76.33-70.19-83z"/><path fill="#FFBF00" d="M383.38 463.18c34.33 0 62.16-27.83 62.16-62.16s-27.83-62.16-62.16-62.16-62.16 27.83-62.16 62.16 27.83 62.16 62.16 62.16"/><path fill="#FFBF00" d="M444.8 523.83c34.33 0 62.16-27.83 62.16-62.16s-27.83-62.16-62.16-62.16-62.16 27.83-62.16 62.16 27.83 62.16 62.16 62.16"/><path fill="#FFBF00" d="M351.75 523.83c34.33 0 62.16-27.83 62.16-62.16s-27.83-62.16-62.16-62.16-62.16 27.83-62.16 62.16 27.83 62.16 62.16 62.16"/><path fill="#FFBF00" d="M271.16 523.83c34.33 0 62.16-27.83 62.16-62.16s-27.83-62.16-62.16-62.16S209 427.34 209 461.67s27.83 62.16 62.16 62.16"/><path fill="#FFBF00" d="M330.82 499.55c34.33 0 62.16-27.83 62.16-62.16s-27.83-62.16-62.16-62.16-62.16 27.83-62.16 62.16 27.83 62.16 62.16 62.16"/><path fill="#fff" d="m435.789 431.331-168.45 442.95-3.738-1.422 168.45-442.95z"/></g><defs><clipPath id="a"><path fill="#fff" d="M209 180h662.85v719.88H209z"/></clipPath></defs></svg>