<svg xmlns="http://www.w3.org/2000/svg" fill="none" viewBox="0 0 1080 1080"><path fill="#CEECFF" d="M725.876 893.196c0 20.929-12.419 38.991-30.371 47.384h32.865c8.267 0 14.968 6.702 14.968 14.968v7.484c0 8.267-6.701 14.968-14.968 14.968H617.978c-8.267 0-14.968-6.702-14.968-14.968v-7.484c0-8.266 6.701-14.968 14.968-14.968h32.244c-17.953-8.393-30.371-26.455-30.371-47.384zm0-.016H619.851V528.949h106.025z"/><path fill="#fff" d="M726.515 431.828c3.061-8.782 12.662-13.421 21.444-10.359s13.42 12.662 10.359 21.444-12.662 13.419-21.444 10.358-13.42-12.661-10.359-21.443m-44.165-15.383c3.061-8.782 12.662-13.42 21.444-10.359s13.42 12.662 10.359 21.444-12.662 13.419-21.444 10.358-13.42-12.661-10.359-21.443m79.624-10.565c3.061-8.783 12.662-13.421 21.444-10.36s13.42 12.662 10.359 21.445-12.662 13.42-21.444 10.359-13.42-12.662-10.359-21.444m-44.158-15.389c3.062-8.782 12.663-13.419 21.445-10.358s13.42 12.661 10.359 21.443-12.662 13.42-21.444 10.359-13.421-12.662-10.36-21.444m-50.059-17.462c3.061-8.782 12.662-13.419 21.444-10.358s13.42 12.661 10.36 21.443-12.663 13.42-21.445 10.359-13.42-12.662-10.359-21.444m82.777-10.109c3.061-8.783 12.662-13.421 21.445-10.36s13.42 12.662 10.359 21.445-12.662 13.42-21.444 10.359c-8.783-3.061-13.421-12.662-10.36-21.444m-44.165-15.399c3.061-8.782 12.662-13.419 21.444-10.358s13.421 12.661 10.36 21.443-12.662 13.421-21.444 10.36c-8.783-3.061-13.421-12.663-10.36-21.445m80.547-13.201c3.118-8.945 12.765-13.714 21.547-10.653s13.374 12.793 10.257 21.738-12.765 13.715-21.547 10.654-13.375-12.794-10.257-21.739m-44.172-15.403c3.118-8.945 12.765-13.715 21.547-10.655 8.782 3.062 13.375 12.795 10.257 21.74s-12.765 13.714-21.547 10.653-13.374-12.793-10.257-21.738m-50.058-17.434c3.117-8.945 12.764-13.715 21.546-10.654s13.375 12.794 10.257 21.739-12.764 13.714-21.547 10.653c-8.782-3.061-13.374-12.793-10.256-21.738m82.781-10.123c3.118-8.945 12.765-13.714 21.547-10.653s13.374 12.793 10.257 21.738-12.765 13.715-21.547 10.654-13.375-12.794-10.257-21.739m-44.163-15.394c3.117-8.945 12.764-13.715 21.547-10.654 8.782 3.061 13.374 12.794 10.256 21.739-3.117 8.944-12.764 13.714-21.546 10.653s-13.375-12.794-10.257-21.738m32.834-27.849c3.061-8.782 12.662-13.42 21.444-10.359s13.42 12.662 10.359 21.444-12.662 13.42-21.444 10.359-13.42-12.662-10.359-21.444M646.741 738.006c-2.917 40.738-3.163 77.434-.97 107.018 1.659 22.397 4.708 40.611 9 53.392 2.147 6.395 4.569 11.321 7.202 14.717 2.627 3.389 5.335 5.102 8.072 5.457l-.515 3.966c-4.137-.537-7.701-3.079-10.719-6.973-3.014-3.888-5.611-9.278-7.832-15.894-4.446-13.24-7.528-31.834-9.198-54.369-2.132-28.78-1.973-64.164.677-103.381a88 88 0 0 0 4.283-3.933m71.272-291.009c-5.873 6.719-11.999 17.34-18.108 31.317-6.096 13.949-12.126 31.124-17.849 50.859-9.297 32.055-17.765 70.794-24.393 113.303a44 44 0 0 0-3.61-2.783c6.599-41.802 14.969-79.94 24.161-111.633 5.756-19.849 11.842-37.196 18.026-51.347 6.172-14.122 12.491-25.177 18.76-32.349z"/><path fill="#fff" d="M671 675.667C671 652.75 652.289 634 629.44 634h-42l-31.877 127h30.317c46.807 0 85.12-38.4 85.12-85.333m4 0C675 724.8 634.905 765 585.88 765h-35.444l33.884-135h45.12c25.067 0 45.56 20.55 45.56 45.667m-390 0C285 652.75 303.711 634 326.56 634h42l31.877 127H370.12c-46.807 0-85.12-38.4-85.12-85.333m-4 0C281 724.8 321.095 765 370.12 765h35.444L371.68 630h-45.12c-25.067 0-45.56 20.55-45.56 45.667"/><path fill="#fff" d="M588.563 630 546.9 796.106l-.001-.001C539.116 827.777 510.775 850 478 850c-32.778 0-61.122-22.227-68.902-53.904L367.437 630zM412.979 795.133l.003.009C420.322 825.025 447.058 846 478 846s57.678-20.975 65.018-50.858l.003-.009L583.437 634H372.563z"/><path fill="#fff" d="M528 902c0-27.615-22.386-50-50-50s-50 22.385-50 50v50h100zm4 54H424v-54c0-29.824 24.177-54 54-54s54 24.176 54 54z"/><path fill="#FFBF00" d="m362.655 138.616 56.718 77.667-40.242 17.083zm46.84 340.735 34.275-89.857-43.319-5.889zm162.387-66.179-59.352-75.673-27.367 34.092zm-34.025-253.974-37.34 88.628-35.376-25.687zM327.124 445.962l37.341-88.628 35.375 25.687z"/><path fill="#FFBF00" d="m293.1 191.988 59.352 75.674 27.366-34.093zm160.51-65.909 11.052 95.536-43.434-4.979zm46.926 341.391-14.484-95.075-40.591 16.234zm108.075-138.464-88.947-36.574-7 43.154zm-13.168-98.288-76.183 58.695-18.112-39.789zM269.531 374.432l76.183-58.696 18.112 39.79zm-13.167-98.288 88.946 36.573 7.001-43.153z"/><path fill="#fff" d="m420.923 215.351 45.185 5.844 36.21 27.654 17.532 42.054-5.844 45.186-27.654 36.209-42.054 17.532-45.186-5.844-36.21-27.654-17.531-42.054 5.844-45.186 27.654-36.21z"/><path fill="#000F47" d="M479.553 296.191c3.482 25.995-14.767 49.891-40.762 53.373-25.994 3.483-49.89-14.767-53.372-40.762-3.483-25.994 14.767-49.89 40.761-53.372 25.995-3.483 49.891 14.767 53.373 40.761"/><path fill="#CEECFF" d="M403.984 496.228c31.578 22.161 45.308 57.04 30.665 77.905-14.642 20.864-52.111 19.812-83.689-2.349s-45.307-57.04-30.665-77.904c14.642-20.865 52.111-19.813 83.689 2.348"/><path fill="#fff" d="m465.661 588.403-2.163 3.365-91.573-58.837 2.162-3.366z"/><path fill="#fff" d="m449.568 415.976 39.423 407.831-3.983.384-39.421-407.83z"/></svg>