<svg xmlns="http://www.w3.org/2000/svg" fill="none" viewBox="0 0 1080 1080"><g clip-path="url(#a)"><path fill="#fff" d="M784.861 880.531v4h-160.24v-4zm207.958 83.332V1076h-359.14c-30.92 0-56.07-25.15-56.07-56.07 0-30.917 25.15-56.067 56.07-56.067zm4-4h-363.14c-33.18 0-60.07 26.89-60.07 60.067 0 33.18 26.89 60.07 60.07 60.07h363.14z"/><path fill="#FFBF00" d="M618.7 408.34 1080 520.41V1080H838.94L495.18 589.26"/><mask id="b" width="585" height="672" x="495" y="408" maskUnits="userSpaceOnUse" style="mask-type:luminance"><path fill="#fff" d="M618.7 408.34 1080 520.41V1080H838.94L495.18 589.26"/></mask><g mask="url(#b)"><path fill="#fff" d="M771.711 760.391h328.559v120.14H771.711c-33.15 0-60.07-26.92-60.07-60.07s26.92-60.07 60.07-60.07"/><path fill="#000F47" d="M1040.34 760.402H787.59v-79.33h252.75c21.89 0 39.66 17.77 39.66 39.66s-17.77 39.66-39.66 39.66z"/><path fill="#fff" d="M633.691 959.863h395.289V1080H633.691c-33.15 0-60.07-26.92-60.07-60.07 0-33.147 26.92-60.067 60.07-60.067"/><path fill="#000F47" d="M943.383 959.863h-318.76v-79.33h318.76c21.89 0 39.66 17.77 39.66 39.66s-17.77 39.67-39.66 39.67"/></g><path fill="#fff" d="M621.983 407.082 495.202 592.779l-99.993-142.741 57.42-84.105zm-221.912 42.926 95.088 135.739 120.259-176.144-161.046-39.13zm-35.702-111.136c-10.7-7.305-25.321-4.555-32.63 6.153l-.006.008c-7.305 10.7-4.554 25.321 6.154 32.631l14.635 9.991 26.482-38.793zm20.194 8.942-30.993 45.399-17.938-12.245c-12.533-8.556-15.752-25.667-7.203-38.191l.006-.008c8.556-12.533 25.665-15.751 38.189-7.201zM223.531 587.391c27.98 0 50.75 22.77 50.75 50.75s-22.77 50.75-50.75 50.75-50.75-22.77-50.75-50.75 22.77-50.75 50.75-50.75m0-4c-30.24 0-54.75 24.51-54.75 54.75s24.51 54.75 54.75 54.75 54.75-24.51 54.75-54.75-24.51-54.75-54.75-54.75M376.4 1022.44c21.86 0 43.39 5.67 62.28 16.4 16.19 9.2 30.24 21.96 40.98 37.16H273.13c10.74-15.2 24.79-27.96 40.98-37.16 18.89-10.73 40.43-16.4 62.28-16.4m.01-4c-46.73 0-87.71 24.6-110.72 61.56h221.44c-23-36.95-63.98-61.56-110.72-61.56"/><path fill="#fff" d="M387.003 442.746 270.282 613.724a53 53 0 0 0-2.222-3.838l115.639-169.395zm-29.857-20.382L243.245 589.211a52 52 0 0 0-3.89-1.397l114.488-167.705z"/><path fill="#fff" d="m394.825 325.711 61.456 41.954-58.113 85.125-61.455-41.953zm2.295 121.521 53.602-78.519-54.848-37.443-53.602 78.519zM220.497 690.399a53 53 0 0 0 4.354.088l134.726 331.043c-1.363.17-2.72.37-4.072.59zm173.854 331.281c-1.51-.21-3.026-.4-4.548-.55L251.92 682.332a53 53 0 0 0 3.375-2.326z"/></g><defs><clipPath id="a"><path fill="#fff" d="M0 0h1080v1080H0z"/></clipPath></defs></svg>