<svg xmlns="http://www.w3.org/2000/svg" fill="none" viewBox="0 0 1080 1080"><g clip-path="url(#a)"><path fill="#000F47" d="M1030.53 800.558S927.539 912.7 800.493 912.7 570.467 800.558 570.467 800.558s102.988-112.142 230.034-112.142 230.039 112.142 230.039 112.142z"/><path fill="#B9B6B1" d="M800.503 891.997c50.5 0 91.439-40.938 91.439-91.438s-40.939-91.439-91.439-91.439-91.439 40.939-91.439 91.439 40.939 91.438 91.439 91.438"/><path fill="#000F47" d="M800.501 844.843c24.456 0 44.282-19.826 44.282-44.282s-19.826-44.281-44.282-44.281-44.281 19.825-44.281 44.281 19.825 44.282 44.281 44.282"/><path fill="#fff" d="M828.976 784.463c15.721 0 28.466-12.616 28.466-28.179s-12.745-28.18-28.466-28.18-28.467 12.617-28.467 28.18 12.745 28.179 28.467 28.179"/><path fill="#000F47" d="M279.034 688.488c126.924 0 229.837 111.926 230.034 112.141h-.007c-.055.06-103.022 112.142-230.035 112.142v-4c62.388 0 119.105-27.561 160.425-55.389 20.624-13.889 37.319-27.783 48.852-38.199 5.764-5.206 10.234-9.539 13.255-12.562a260 260 0 0 0 1.971-1.996q-.848-.87-1.963-1.987c-3.021-3.023-7.491-7.356-13.255-12.562-11.533-10.417-28.227-24.31-48.851-38.2-41.32-27.828-98.038-55.388-160.426-55.388s-119.105 27.56-160.425 55.388c-20.623 13.89-37.318 27.783-48.851 38.2-5.765 5.206-10.234 9.539-13.255 12.562a266 266 0 0 0-1.969 1.991q.85.872 1.969 1.992c3.02 3.023 7.49 7.356 13.254 12.562 11.532 10.416 28.226 24.31 48.848 38.199 41.318 27.828 98.033 55.389 160.421 55.389v4C151.98 912.771 49 800.629 49 800.629c.102-.111 103.051-112.141 230.034-112.141"/><path fill="#B9B6B1" d="M279.036 892.067c50.5 0 91.439-40.939 91.439-91.439s-40.939-91.439-91.439-91.439-91.438 40.939-91.438 91.439 40.938 91.439 91.438 91.439"/><path fill="#000F47" d="M279.036 844.914c24.456 0 44.281-19.826 44.281-44.282s-19.825-44.281-44.281-44.281c-24.457 0-44.282 19.825-44.282 44.281s19.825 44.282 44.282 44.282"/><path fill="#fff" d="M307.502 784.524c15.722 0 28.467-12.616 28.467-28.179s-12.745-28.179-28.467-28.179-28.467 12.616-28.467 28.179 12.745 28.179 28.467 28.179"/><path fill="#000F47" d="M1060 487.269c126.92 0 229.84 111.933 230.03 112.141h-.01c-.06.065-103.02 112.142-230.03 112.142v-4c62.39 0 119.1-27.561 160.42-55.389 20.63-13.89 37.32-27.783 48.85-38.199 5.77-5.206 10.24-9.54 13.26-12.563.75-.747 1.4-1.415 1.97-1.996-.56-.578-1.22-1.243-1.96-1.986-3.02-3.023-7.49-7.356-13.26-12.563-11.53-10.416-28.22-24.309-48.85-38.199-41.32-27.828-98.04-55.388-160.42-55.388-62.392 0-119.109 27.56-160.429 55.388-20.624 13.89-37.318 27.783-48.851 38.199-5.765 5.207-10.234 9.54-13.255 12.563q-1.119 1.12-1.969 1.991.85.872 1.969 1.991c3.021 3.023 7.49 7.357 13.254 12.563 11.532 10.416 28.226 24.309 48.848 38.199 41.318 27.828 98.033 55.389 160.423 55.389v4c-127.048 0-230.028-112.142-230.028-112.142.099-.108 103.049-112.141 230.038-112.141"/><path fill="#000F47" d="M1147.44 599.41c0-48.291-39.15-87.438-87.44-87.438s-87.44 39.147-87.44 87.438 39.15 87.439 87.44 87.439v4c-50.5 0-91.44-40.939-91.44-91.439s40.94-91.438 91.44-91.438 91.44 40.938 91.44 91.438-40.94 91.439-91.44 91.439v-4c48.29 0 87.44-39.148 87.44-87.439"/><path fill="#000F47" d="M1060 643.695c24.46 0 44.29-19.826 44.29-44.282s-19.83-44.282-44.29-44.282c-24.45 0-44.28 19.826-44.28 44.282s19.83 44.282 44.28 44.282"/><path fill="#fff" d="M1088.47 583.315c15.73 0 28.47-12.616 28.47-28.179s-12.74-28.179-28.47-28.179c-15.72 0-28.46 12.616-28.46 28.179s12.74 28.179 28.46 28.179m-321.642 12.827S663.84 708.283 536.794 708.283 306.768 596.142 306.768 596.142 409.756 484 536.802 484s230.034 112.142 230.034 112.142z"/><path fill="#FFBF00" d="M536.8 687.58c50.5 0 91.439-40.938 91.439-91.438S587.3 504.703 536.8 504.703s-91.439 40.939-91.439 91.439S486.3 687.58 536.8 687.58"/><path fill="#000F47" d="M536.802 640.427c24.456 0 44.282-19.826 44.282-44.282s-19.826-44.281-44.282-44.281-44.281 19.825-44.281 44.281 19.825 44.282 44.281 44.282"/><path fill="#fff" d="M565.269 580.038c15.722 0 28.467-12.617 28.467-28.18s-12.745-28.179-28.467-28.179-28.466 12.616-28.466 28.179 12.745 28.18 28.466 28.18"/></g><defs><clipPath id="a"><path fill="#fff" d="M0 0h1080v1080H0z"/></clipPath></defs></svg>