<svg xmlns="http://www.w3.org/2000/svg" fill="none" viewBox="0 0 1080 1080"><path fill="#CEECFF" d="M1000.42 754.695c0 45.123-36.723 81.702-82.018 81.702s-82.014-36.579-82.014-81.702z"/><path fill="#CEECFF" d="M836.388 576.948h164.032v177.75H836.388zm80.134 202.699 63.858 223.363c2.847 9.96-4.632 19.87-14.992 19.87h-97.732c-10.36 0-17.839-9.91-14.992-19.87z"/><path fill="#fff" d="M566.263 890.653c0-54.253-32.898-100.831-79.849-120.86l-3.568-1.523 45.666-116.844H350.104l44.592 114.096-3.884 1.384c-50.844 18.126-87.227 66.692-87.228 123.747 0 72.537 58.803 131.337 131.339 131.337v4c-74.745 0-135.339-60.591-135.339-135.337.001-58.799 37.499-108.839 89.885-127.514l-45.222-115.713H534.37l-46.386 118.687c48.372 20.636 82.279 68.628 82.279 124.54 0 74.746-60.594 135.337-135.34 135.337v-4c72.537 0 131.34-58.8 131.34-131.337"/><path fill="#CEECFF" d="M272.665 941.195c0 20.929-12.419 38.992-30.372 47.384h32.866c8.266 0 14.967 6.702 14.967 14.971v7.48c0 8.27-6.701 14.97-14.967 14.97H164.766c-8.266 0-14.968-6.7-14.968-14.97v-7.48c0-8.269 6.702-14.971 14.968-14.971h32.244c-17.952-8.392-30.371-26.455-30.371-47.384zm0-.015H166.639V576.948h106.026z"/><path fill="#FFBF00" d="m480.61 463.94-44.119-85.455 42.388-10.702zm-45.91-84.823-45.903 84.51 3.749-96.099zm-42.681-12.248-80.43 52.728 48.778-82.885zm166.515 52.728-80.43-52.728 31.652-30.157zm-198.559-84.762-95.971 6.218 83.303-48.061zm246.138 6.218-95.97-6.218 12.668-41.843zm-246.138-92.949-12.668 41.843-83.303-48.06zm162.836 41.843-12.668-41.843 95.97-6.217zM433.519 204.2l-42.009 11.548.509.334-31.652 30.156-48.778-82.884 79.769 52.295-3.743-95.959zm76.237 42.038-31.652-30.156 80.43-52.728zm-32.057-30.74-42.387-10.701 44.119-85.455z"/><path fill="#fff" d="m435.179 203.481 44.009 11.793 32.217 32.217 11.793 44.009-11.793 44.01-32.217 32.217-44.009 11.792-44.01-11.792-32.217-32.217-11.792-44.01 11.792-44.009 32.217-32.217z"/><path fill="#000F47" d="M482.556 291.391c0 26.227-21.261 47.488-47.488 47.488s-47.487-21.261-47.487-47.488c0-26.226 21.26-47.487 47.487-47.487s47.488 21.261 47.488 47.487"/><path fill="#fff" d="M803.641 430.338c0 7.379-24.643 13.36-55.043 13.36s-55.043-5.981-55.043-13.36 24.643-13.36 55.043-13.36 55.043 5.982 55.043 13.36m13.361-13.347c-7.378 0-13.36-24.644-13.36-55.043s5.982-55.044 13.36-55.044c7.379 0 13.36 24.644 13.36 55.044s-5.981 55.043-13.36 55.043m122.913 13.347c0 7.379-24.524 13.36-54.777 13.36-30.252 0-54.776-5.981-54.776-13.36s24.524-13.36 54.776-13.36 54.777 5.982 54.777 13.36M817.284 553.25c-7.378 0-13.36-24.524-13.36-54.776s5.982-54.776 13.361-54.776c7.378 0 13.36 24.524 13.36 54.776s-5.982 54.776-13.361 54.776m-9.997-132.243c-5.217 5.217-26.873-7.979-48.368-29.475s-34.692-43.151-29.475-48.368c5.218-5.218 26.873 7.978 48.369 29.474s34.692 43.151 29.474 48.369m18.892 0c-5.218-5.217 7.978-26.873 29.474-48.368s43.151-34.692 48.369-29.475c5.217 5.218-7.979 26.873-29.475 48.369s-43.151 34.692-48.368 29.474"/><path fill="#fff" d="M903.651 517.355c-5.217 5.217-26.788-7.895-48.179-29.286s-34.503-42.962-29.286-48.179c5.218-5.218 26.788 7.894 48.18 29.285 21.391 21.392 34.503 42.962 29.285 48.18m-173.637.197c-5.218-5.217 7.894-26.788 29.285-48.18 21.392-21.391 42.963-34.503 48.18-29.285 5.217 5.217-7.894 26.788-29.286 48.179-21.391 21.392-42.962 34.503-48.179 29.286m-590.598-48.079c8.783-3.061 18.384 1.577 21.445 10.359s-1.577 18.384-10.36 21.445-18.383-1.577-21.444-10.36 1.577-18.383 10.359-21.444m44.166-15.383c8.783-3.061 18.384 1.577 21.445 10.36s-1.577 18.383-10.36 21.444-18.383-1.577-21.444-10.359 1.577-18.384 10.359-21.445m-79.624-10.564c8.783-3.061 18.384 1.577 21.445 10.359s-1.578 18.382-10.36 21.443-18.383-1.576-21.444-10.358 1.577-18.383 10.359-21.444m44.157-15.389c8.782-3.061 18.383 1.577 21.444 10.359s-1.577 18.383-10.359 21.444-18.384-1.576-21.445-10.359 1.577-18.383 10.36-21.444m50.058-17.462c8.782-3.061 18.383 1.577 21.444 10.36s-1.577 18.383-10.359 21.444-18.383-1.577-21.444-10.36 1.577-18.383 10.359-21.444m-82.776-10.109c8.782-3.061 18.383 1.577 21.444 10.359s-1.577 18.382-10.359 21.443-18.383-1.576-21.445-10.358c-3.061-8.782 1.578-18.383 10.36-21.444m44.166-15.399c8.782-3.061 18.383 1.577 21.444 10.36s-1.577 18.382-10.359 21.443-18.383-1.576-21.445-10.358c-3.061-8.783 1.578-18.384 10.36-21.445m-80.65-13.495c8.782-3.061 18.43 1.71 21.547 10.655s-1.474 18.677-10.257 21.738-18.429-1.709-21.546-10.654 1.474-18.678 10.256-21.739m44.172-15.403c8.782-3.061 18.429 1.708 21.547 10.653s-1.474 18.678-10.257 21.739-18.429-1.709-21.547-10.654c-3.117-8.945 1.475-18.677 10.257-21.738m50.059-17.434c8.782-3.061 18.429 1.709 21.547 10.654 3.117 8.945-1.475 18.678-10.257 21.739s-18.429-1.71-21.547-10.654c-3.118-8.945 1.475-18.678 10.257-21.739m-82.782-10.123c8.782-3.06 18.429 1.71 21.547 10.655 3.117 8.944-1.475 18.677-10.257 21.738s-18.43-1.709-21.547-10.653 1.474-18.679 10.257-21.74m44.164-15.395c8.782-3.061 18.429 1.709 21.547 10.654 3.117 8.945-1.475 18.677-10.257 21.738s-18.429-1.708-21.547-10.653 1.474-18.678 10.257-21.739m-32.733-27.554c8.782-3.061 18.383 1.577 21.444 10.359s-1.577 18.383-10.359 21.444-18.383-1.577-21.444-10.359 1.577-18.383 10.359-21.444"/><path fill="#CEECFF" d="M978.525 505.284c3.128 3.128-4.784 16.113-17.673 29.002s-25.873 20.801-29.001 17.672 4.784-16.112 17.673-29.001 25.873-20.801 29.001-17.673m.012-11.338c-3.129 3.128-16.113-4.785-29.002-17.673-12.888-12.889-20.801-25.873-17.672-29.002s16.112 4.784 29.001 17.673 20.801 25.873 17.673 29.002m57.773-46.44c3.13 3.128-4.73 16.062-17.56 28.888-12.82 12.826-25.755 20.688-28.884 17.559-3.128-3.128 4.734-16.062 17.564-28.888 12.82-12.826 25.76-20.688 28.88-17.559m.12 104.111c-3.13 3.129-16.07-4.733-28.89-17.559-12.829-12.826-20.691-25.76-17.562-28.888s16.062 4.733 28.892 17.559c12.82 12.826 20.68 25.76 17.56 28.888m-44.092-84.613c-4.507 4.506-11.714 4.604-16.098.22s-4.285-11.591.221-16.097 11.713-4.605 16.097-.221 4.286 11.591-.22 16.098m-38.37 40.438c-4.506 4.506-11.713 4.604-16.097.22s-4.286-11.591.22-16.097 11.713-4.605 16.097-.221 4.286 11.591-.22 16.098m76.742 0c-4.5 4.506-11.71 4.604-16.09.22-4.39-4.384-4.29-11.591.22-16.097 4.5-4.506 11.71-4.605 16.1-.221 4.38 4.384 4.28 11.591-.23 16.098m-38.372 41.91c-4.507 4.506-11.714 4.604-16.098.22s-4.285-11.591.221-16.097 11.713-4.605 16.097-.221 4.286 11.592-.22 16.098"/><path fill="#fff" d="M965.483 553.875c1.877.642 1.893.648 1.892.649l-.001.003-.005.016-.023.066-.091.268-.355 1.067c-.313.946-.772 2.354-1.359 4.199a690 690 0 0 0-4.89 16.093c-4.064 13.939-9.521 34.014-15.087 58.539-11.134 49.061-22.695 115.887-24.43 187.009l-3.998-.097c1.743-71.471 13.356-138.574 24.527-187.796 5.586-24.616 11.064-44.77 15.147-58.775a696 696 0 0 1 4.919-16.186 415 415 0 0 1 1.735-5.329l.094-.278.025-.07.005-.019.002-.004c.001-.002.001-.002 1.893.645M233.999 720.537c-7.047-54.293-17.237-103.895-28.683-143.363-5.723-19.735-11.753-36.911-17.849-50.859-6.109-13.978-12.235-24.599-18.108-31.318l3.012-2.632c6.269 7.172 12.589 18.227 18.761 32.348 6.184 14.151 12.269 31.498 18.026 51.347 11.512 39.698 21.74 89.505 28.808 143.963 8.68 66.872 10.967 128.194 7.624 173.298-1.67 22.535-4.751 41.129-9.197 54.369-2.221 6.616-4.818 12.006-7.832 15.894-3.018 3.894-6.582 6.436-10.72 6.973l-.515-3.967c2.737-.355 5.446-2.067 8.073-5.457 2.633-3.396 5.055-8.321 7.202-14.716 4.291-12.781 7.34-30.995 9-53.392 3.317-44.761 1.054-105.8-7.602-172.488"/><path fill="#CEECFF" d="M381.095 479.623c28.356 26.158 37.332 62.551 20.049 81.287-17.283 18.735-54.281 12.717-82.637-13.441-28.355-26.158-37.332-62.551-20.049-81.286s54.281-12.718 82.637 13.44"/><path fill="#fff" d="m429.985 579.171-2.59 3.048-82.95-70.476 2.59-3.049z"/><path fill="#fff" d="m436.932 406.117-16.216 568.8-3.998-.115 16.216-568.799z"/><mask id="a" width="272" height="284" x="541" y="739" maskUnits="userSpaceOnUse" style="mask-type:alpha"><path fill="#B3ACA2" d="M812.665 739.711c0 71.535-55.501 130.104-125.791 135.003 6.499 2.839 11.041 9.323 11.041 16.868 0 8.149-5.297 15.058-12.636 17.477l63.639 113.661H610.105l63.639-113.663c-7.334-2.421-12.627-9.329-12.627-17.475 0-7.358 4.32-13.707 10.562-16.65-72.127-2.961-129.693-62.367-129.693-135.221 77.82.001 135.34-.002 270.679 0"/></mask><g mask="url(#a)"><path fill="#CEECFF" d="M567.806 819.241c-16.239-22.325-25.82-49.805-25.82-79.524h25.82zm36.044 34.148a136.1 136.1 0 0 1-32.044-28.921v-84.751h32.044zm36.675 16.6a134.6 134.6 0 0 1-32.675-14.107V739.717h32.675zm-30.413 152.721 30.413-54.314v54.314zm34.413 0v-61.457l29.22-52.187c-7.333-2.421-12.626-9.328-12.626-17.472 0-7.363 4.325-13.716 10.572-16.657a135.3 135.3 0 0 1-27.166-3.888V739.717h32.043v282.993zm36.043 0V739.717h32.676v130.514a135 135 0 0 1-26.379 4.49c6.505 2.836 11.052 9.323 11.052 16.873 0 8.144-5.293 15.051-12.626 17.472l27.953 49.923v63.721zm68.719-168.356a134.6 134.6 0 0 1-32.043 14.713v-129.35h32.043zm-32.043 168.356v-56.576l31.681 56.576zm68.719-202.269a136.1 136.1 0 0 1-32.676 31.298V739.717h32.676zm26.702-80.724c0 27.764-8.362 53.574-22.702 75.052v-75.052z"/></g><path fill="#fff" d="m846.936 492.567.01.02.036.081.14.315q.185.417.543 1.233a390 390 0 0 1 2.051 4.8 641 641 0 0 1 7.321 18.268c6.061 15.776 14.156 38.413 22.3 65.881 16.284 54.919 32.785 129.219 33.578 206.616l-4 .041c-.788-76.894-17.189-150.803-33.413-205.521-8.109-27.351-16.17-49.888-22.2-65.583a639 639 0 0 0-7.273-18.153 379 379 0 0 0-2.03-4.749 219 219 0 0 0-.702-1.587l-.007-.018-.002-.004c.001-.002.06-.029 1.822-.825 1.725-.779 1.818-.82 1.823-.821z"/><path fill="#fff" fill-rule="evenodd" d="M545.496 566.351c15.471 0 29.051 8.096 36.739 20.28 7.688-12.184 21.267-20.279 36.739-20.279 23.976 0 43.412 19.436 43.412 43.411 0 15.468-8.091 29.044-20.269 36.733 12.178 7.689 20.269 21.265 20.269 36.732 0 23.975-19.436 43.411-43.412 43.411-15.472 0-29.051-8.095-36.739-20.28-7.688 12.185-21.267 20.28-36.739 20.28-23.976 0-43.411-19.436-43.412-43.411 0-15.467 8.091-29.043 20.269-36.732-12.178-7.689-20.268-21.266-20.269-36.733 0-23.975 19.436-43.412 43.412-43.412m36.739 66.543a43.6 43.6 0 0 1-13.598 13.602 43.6 43.6 0 0 1 13.598 13.6 43.6 43.6 0 0 1 13.597-13.6 43.6 43.6 0 0 1-13.597-13.602" clip-rule="evenodd"/><path fill="#CEECFF" fill-rule="evenodd" d="M735.537 701.319c7.338 7.338 7.338 19.235 0 26.573-4.734 4.734-11.366 6.413-17.447 5.038 1.375 6.081-.304 12.714-5.039 17.448-7.338 7.337-19.234 7.337-26.571 0-4.735-4.734-6.414-11.367-5.039-17.448-6.081 1.375-12.713-.304-17.447-5.038-7.338-7.338-7.338-19.235 0-26.573 4.734-4.734 11.365-6.413 17.446-5.039-1.374-6.081.305-12.712 5.039-17.446 7.338-7.338 19.235-7.338 26.573 0 4.734 4.734 6.413 11.365 5.039 17.446 6.081-1.374 12.712.305 17.446 5.039m-31.611 9.126a18.9 18.9 0 0 1-8.321 0 18.9 18.9 0 0 1 0 8.321 18.9 18.9 0 0 1 8.321 0 18.9 18.9 0 0 1 0-8.321" clip-rule="evenodd"/><path fill="#fff" d="M773.231 715.237c-1.657 7.323.366 15.293 6.055 20.982l-2.828 2.828c-6.701-6.7-9.076-16.087-7.129-24.693-8.605 1.947-17.991-.426-24.69-7.126l2.828-2.828c5.688 5.688 13.656 7.71 20.98 6.053l6.183-1.399zm37.997 20.982c5.688-5.689 7.711-13.658 6.053-20.982l-1.399-6.183 6.183 1.399c7.095 1.605 14.796-.243 20.442-5.531l.54-.522c8.682-8.683 8.818-22.676.407-31.525l-.407-.417c-5.688-5.689-13.657-7.712-20.98-6.056l-6.183 1.399 1.399-6.183c1.657-7.323-.367-15.292-6.055-20.98-8.821-8.82-23.122-8.82-31.943 0-5.688 5.689-7.711 13.657-6.054 20.98l1.398 6.183-6.182-1.399c-7.323-1.656-15.291.367-20.979 6.056-8.821 8.82-8.821 23.121-.001 31.942l-2.828 2.828c-10.383-10.383-10.382-27.216 0-37.599 6.7-6.699 16.085-9.075 24.69-7.128-1.947-8.606.428-17.991 7.128-24.691 10.383-10.382 27.216-10.383 37.599-.001 6.7 6.7 9.075 16.086 7.128 24.692 8.606-1.947 17.992.428 24.692 7.128 10.382 10.383 10.382 27.217-.001 37.599-6.7 6.7-16.086 9.074-24.692 7.126 1.948 8.606-.427 17.993-7.127 24.693-10.383 10.383-27.216 10.382-37.598 0l2.828-2.828c8.683 8.682 22.675 8.818 31.524.406zm-6.177-52.801a22.7 22.7 0 0 0 0 10.02l1.399 6.183-6.183-1.399a22.7 22.7 0 0 0-10.019-.001l-6.183 1.399 1.399-6.183a22.7 22.7 0 0 0 0-10.019l-1.399-6.183 6.183 1.399c3.295.746 6.725.746 10.019 0l6.183-1.399zm-3.902-.882a26.7 26.7 0 0 1-11.783 0 26.7 26.7 0 0 1-.001 11.784 26.7 26.7 0 0 1 11.784.001 26.7 26.7 0 0 1 0-11.785"/></svg>