<svg xmlns="http://www.w3.org/2000/svg" fill="none" viewBox="0 0 1080 1080"><path fill="#FFBF00" d="M556.65 111c113.121 0 204.824 91.97 204.824 205.42 0 72.613-37.568 136.425-94.273 172.957l89.788 457.622H356.204l89.8-457.685c-56.651-36.541-94.177-100.322-94.177-172.894C351.827 202.97 443.53 111 556.65 111"/><mask id="a" width="410" height="836" x="351" y="111" maskUnits="userSpaceOnUse" style="mask-type:alpha"><path fill="#FFBF00" d="M555.823 111c113.121 0 204.823 91.97 204.823 205.42 0 72.613-37.567 136.425-94.272 172.957l89.787 457.622H355.377l89.8-457.685C388.526 452.773 351 388.992 351 316.42 351 202.97 442.703 111 555.823 111"/></mask><g mask="url(#a)"><path fill="#000F47" d="M572.801 346.769h-4.905v-54.214h4.905zM404.745 135.337h-4.906V81.123h4.906zm315.463 70.479h4.905v-54.214h-4.905zm-315.463 70.476h-4.906v-54.213h4.906zm290.942 70.477h-4.905v-54.214h4.905zm-290.942 70.479h-4.906v-54.214h4.906zm315.463 70.479h4.905v-54.214h-4.905zm-315.463 70.471h-4.906v-54.214h4.906zm315.463 70.479h4.905v-54.214h-4.905zm-315.463 70.479h-4.906v-54.214h4.906zm0 70.476h-4.906v-54.214h4.906zm315.463 70.477h4.905v-54.214h-4.905zm-315.463 70.479h-4.906v-54.214h4.906zm315.463 70.478h4.905v-54.213h-4.905zm-194.39-845.729h-4.905V81.123h4.905zm73.317 70.479h4.905v-54.214h-4.905zm-73.317 70.476h-4.905v-54.213h4.905zm0 140.956h-4.905v-54.214h4.905zm73.317 70.479h4.905v-54.214h-4.905zm-73.317 70.471h-4.905v-54.214h4.905zm73.317 70.479h4.905v-54.214h-4.905zm-73.317 70.479h-4.905v-54.214h4.905zm0 70.476h-4.905v-54.214h4.905zm73.317 70.477h4.905v-54.214h-4.905zm-73.317 70.479h-4.905v-54.214h4.905zm73.317 70.478h4.905v-54.213h-4.905zm-44.403-845.729h-4.905V81.123h4.905zm15.489 70.479h4.905v-54.214h-4.905zm-15.489 70.476h-4.905v-54.213h4.905zm0 140.956h-4.905v-54.214h4.905zm15.489 70.479h4.905v-54.214h-4.905zm-15.489 70.471h-4.905v-54.214h4.905zm15.489 70.479h4.905v-54.214h-4.905zm-15.489 70.479h-4.905v-54.214h4.905zm0 70.476h-4.905v-54.214h4.905zm15.489 70.477h4.905v-54.214h-4.905zm-15.489 70.479h-4.905v-54.214h4.905zm15.489 70.478h4.905v-54.213h-4.905zm-57.052-634.297h-4.905v-54.214h4.905zm30.718 0h-4.906v-54.214h4.906zM374.02 135.337h-4.905V81.123h4.905zm376.913 70.479h4.905v-54.214h-4.905zM374.02 276.292h-4.905v-54.213h4.905zm290.945 70.477h-4.905v-54.214h4.905zM374.02 417.248h-4.905v-54.214h4.905zm376.913 70.479h4.905v-54.214h-4.905zM374.02 558.198h-4.905v-54.214h4.905zm376.913 70.479h4.905v-54.214h-4.905zM374.02 699.156h-4.905v-54.214h4.905zm0 70.476h-4.905v-54.214h4.905zm376.913 70.477h4.905v-54.214h-4.905zM374.02 910.588h-4.905v-54.214h4.905zm376.913 70.478h4.905v-54.213h-4.905zm-29.946-845.729h-4.905V81.123h4.905zm-317.021 70.479h4.905v-54.214h-4.905zm317.021 70.476h-4.905v-54.213h4.905zm-301.79 70.477h-4.905v-54.214h4.905zm301.79 70.479h-4.905v-54.214h4.905zm-317.021 70.479h4.905v-54.214h-4.905zm317.021 70.471h-4.905v-54.214h4.905zm-317.021 70.479h4.905v-54.214h-4.905zm317.021 70.479h-4.905v-54.214h4.905zm0 70.476h-4.905v-54.214h4.905zm-317.021 70.477h4.905v-54.214h-4.905zm317.021 70.479h-4.905v-54.214h4.905zm-317.021 70.478h4.905v-54.213h-4.905zm91.132-845.729h-4.905V81.123h4.905zm134.756 70.479h4.906v-54.214h-4.906zm-134.756 70.476h-4.905v-54.213h4.905zm0 140.956h-4.905v-54.214h4.905zm134.756 70.479h4.906v-54.214h-4.906zm-134.756 70.471h-4.905v-54.214h4.905zm134.756 70.479h4.906v-54.214h-4.906zm-134.756 70.479h-4.905v-54.214h4.905zm0 70.476h-4.905v-54.214h4.905zm134.756 70.477h4.906v-54.214h-4.906zm-134.756 70.479h-4.905v-54.214h4.905zm134.756 70.478h4.906v-54.213h-4.906zM347.947 108.23c0-12.262-9.941-22.201-22.202-22.201s-22.201 9.94-22.202 22.201c0 12.261 9.94 22.202 22.202 22.202v4.905l-.7-.009c-14.647-.371-26.407-12.362-26.407-27.098 0-14.97 12.136-27.107 27.107-27.107s27.107 12.136 27.107 27.107l-.009.7c-.371 14.647-12.362 26.407-27.098 26.407v-4.905c12.261 0 22.202-9.941 22.202-22.202m4.905 140.955c0 14.971-12.136 27.107-27.107 27.107s-27.107-12.136-27.107-27.107 12.136-27.106 27.107-27.106 27.107 12.136 27.107 27.106m290.942 70.477c0 14.971-12.136 27.107-27.106 27.107s-27.107-12.136-27.107-27.107 12.136-27.107 27.107-27.107 27.106 12.136 27.106 27.107M347.947 390.14c0-12.261-9.941-22.201-22.202-22.201s-22.201 9.94-22.202 22.201c0 12.262 9.94 22.202 22.202 22.203v4.905l-.7-.009c-14.647-.371-26.407-12.362-26.407-27.099 0-14.97 12.136-27.106 27.107-27.106s27.107 12.136 27.107 27.106l-.009.701c-.371 14.647-12.362 26.407-27.098 26.407v-4.905c12.261 0 22.202-9.941 22.202-22.203m0 140.951c0-12.262-9.941-22.201-22.202-22.201s-22.201 9.939-22.202 22.201c0 12.261 9.94 22.202 22.202 22.202v4.905l-.7-.009c-14.647-.371-26.407-12.361-26.407-27.098 0-14.971 12.136-27.106 27.107-27.107s27.107 12.136 27.107 27.107l-.009.7c-.371 14.647-12.362 26.407-27.098 26.407v-4.905c12.261 0 22.202-9.941 22.202-22.202m0 140.957c0-12.261-9.941-22.201-22.202-22.201s-22.201 9.94-22.202 22.201c0 12.262 9.94 22.202 22.202 22.202v4.906l-.7-.009c-14.647-.371-26.407-12.362-26.407-27.099 0-14.97 12.136-27.106 27.107-27.106s27.107 12.136 27.107 27.106l-.009.701c-.371 14.647-12.362 26.407-27.098 26.407v-4.906c12.261 0 22.202-9.94 22.202-22.202m0 70.477c0-12.262-9.941-22.201-22.202-22.201s-22.201 9.94-22.202 22.201c0 12.261 9.94 22.202 22.202 22.202v4.905l-.7-.008c-14.647-.371-26.407-12.362-26.407-27.099 0-14.971 12.136-27.106 27.107-27.107s27.107 12.136 27.107 27.107l-.009.7c-.371 14.647-12.362 26.407-27.098 26.407v-4.905c12.261 0 22.202-9.941 22.202-22.202m0 140.955c0-12.261-9.941-22.201-22.202-22.201s-22.201 9.94-22.202 22.201c0 12.262 9.94 22.202 22.202 22.202v4.906l-.7-.009c-14.647-.371-26.407-12.362-26.407-27.099 0-14.97 12.136-27.106 27.107-27.106s27.107 12.136 27.107 27.106l-.009.7c-.371 14.648-12.362 26.408-27.098 26.408v-4.906c12.261 0 22.202-9.94 22.202-22.202"/><path fill="#fff" d="M473.927 108.23c0 14.971-12.136 27.107-27.106 27.107s-27.107-12.136-27.107-27.107 12.136-27.107 27.107-27.107 27.106 12.136 27.106 27.107m182.003 70.478c0-12.261 9.941-22.201 22.202-22.201s22.201 9.94 22.201 22.201-9.939 22.202-22.201 22.203v4.905l.7-.009c14.647-.371 26.407-12.362 26.407-27.099 0-14.97-12.136-27.106-27.107-27.106s-27.107 12.136-27.107 27.106l.009.701c.371 14.647 12.362 26.407 27.098 26.407v-4.905c-12.261 0-22.202-9.941-22.202-22.203m-186.908 70.477c0-12.261-9.94-22.201-22.202-22.201-12.261 0-22.201 9.94-22.201 22.201s9.94 22.202 22.201 22.202v4.905l-.699-.008c-14.647-.371-26.407-12.362-26.407-27.099 0-14.97 12.136-27.106 27.106-27.106s27.108 12.136 27.108 27.106l-.009.7c-.371 14.647-12.362 26.407-27.099 26.407v-4.905c12.262 0 22.202-9.94 22.202-22.202m295.853 70.477c0 14.971-12.137 27.107-27.107 27.107-14.971 0-27.107-12.136-27.107-27.107s12.136-27.107 27.107-27.107 27.107 12.136 27.107 27.107M469.022 390.14c0-12.261-9.94-22.201-22.202-22.201-12.261 0-22.201 9.94-22.201 22.201s9.94 22.202 22.201 22.203v4.905l-.699-.009c-14.647-.371-26.407-12.362-26.407-27.099 0-14.97 12.136-27.106 27.106-27.106s27.108 12.136 27.108 27.106l-.009.701c-.371 14.647-12.362 26.407-27.099 26.407v-4.905c12.262 0 22.202-9.941 22.202-22.203"/><path fill="#000F47" d="M655.93 460.619c0-12.261 9.941-22.201 22.202-22.201s22.201 9.94 22.201 22.201-9.939 22.202-22.201 22.202v4.906l.7-.009c14.647-.371 26.407-12.362 26.407-27.099 0-14.97-12.136-27.106-27.107-27.106s-27.107 12.136-27.107 27.106l.009.7c.371 14.647 12.362 26.408 27.098 26.408v-4.906c-12.261 0-22.202-9.94-22.202-22.202m-186.908 70.472c0-12.262-9.94-22.201-22.202-22.201-12.261 0-22.201 9.939-22.201 22.201 0 12.261 9.94 22.202 22.201 22.202v4.905l-.699-.009c-14.647-.371-26.407-12.361-26.407-27.098 0-14.971 12.136-27.106 27.106-27.107s27.108 12.136 27.108 27.107l-.009.7c-.371 14.647-12.362 26.407-27.099 26.407v-4.905c12.262 0 22.202-9.941 22.202-22.202M655.93 601.57c0-12.262 9.941-22.202 22.202-22.202 12.262.001 22.201 9.94 22.201 22.202 0 12.261-9.939 22.202-22.201 22.202v4.905l.7-.009c14.647-.371 26.407-12.362 26.407-27.098 0-14.971-12.136-27.107-27.107-27.107s-27.107 12.136-27.107 27.107l.009.7c.371 14.647 12.362 26.407 27.098 26.407v-4.905c-12.261 0-22.202-9.941-22.202-22.202m-182.003 70.479c0 14.97-12.136 27.106-27.106 27.106s-27.107-12.136-27.107-27.106 12.136-27.107 27.107-27.107 27.106 12.136 27.106 27.107"/><path fill="#fff" d="M469.022 742.525c0-12.262-9.94-22.201-22.202-22.201-12.261 0-22.201 9.94-22.201 22.201s9.94 22.202 22.201 22.202v4.905l-.699-.008c-14.647-.371-26.407-12.362-26.407-27.099 0-14.971 12.136-27.106 27.106-27.107s27.108 12.136 27.108 27.107l-.009.7c-.371 14.647-12.362 26.407-27.099 26.407v-4.905c12.262 0 22.202-9.941 22.202-22.202"/><path fill="#000F47" d="M651.025 813.002c0 14.97 12.136 27.106 27.107 27.106s27.107-12.136 27.107-27.106-12.136-27.107-27.107-27.107-27.107 12.136-27.107 27.107"/><path fill="#fff" d="M473.927 883.481c0 14.97-12.136 27.106-27.106 27.106s-27.107-12.136-27.107-27.106 12.136-27.107 27.107-27.107 27.106 12.136 27.106 27.107"/><path fill="#000F47" d="M651.025 953.959c0 14.971 12.136 27.107 27.107 27.107s27.107-12.136 27.107-27.107-12.136-27.106-27.107-27.106-27.107 12.136-27.107 27.106"/><path fill="#fff" d="M793.786 108.23c0 14.971-12.136 27.107-27.107 27.107s-27.106-12.136-27.106-27.107 12.136-27.107 27.106-27.107 27.107 12.136 27.107 27.107"/><path fill="#000F47" d="M336.071 178.708c0-12.261 9.941-22.201 22.202-22.201s22.201 9.94 22.202 22.201c0 12.262-9.94 22.202-22.202 22.203v4.905l.7-.009c14.647-.371 26.407-12.362 26.407-27.099 0-14.97-12.136-27.106-27.107-27.106s-27.107 12.136-27.107 27.106l.009.701c.371 14.647 12.362 26.407 27.098 26.407v-4.905c-12.261 0-22.202-9.941-22.202-22.203"/><path fill="#fff" d="M788.881 249.185c0-12.261-9.94-22.201-22.202-22.201-12.261 0-22.201 9.94-22.201 22.201s9.94 22.202 22.201 22.202v4.905l-.699-.008c-14.647-.371-26.407-12.362-26.407-27.099 0-14.97 12.136-27.106 27.106-27.106s27.107 12.136 27.108 27.106l-.009.7c-.371 14.647-12.362 26.407-27.099 26.407v-4.905c12.262 0 22.202-9.94 22.202-22.202"/><path fill="#000F47" d="M487.094 319.662c0-12.262-9.941-22.202-22.202-22.202-12.262.001-22.201 9.94-22.202 22.202 0 12.261 9.94 22.202 22.202 22.202v4.905l-.7-.009c-14.647-.371-26.407-12.362-26.407-27.098 0-14.971 12.136-27.107 27.107-27.107s27.107 12.136 27.107 27.107l-.009.7c-.371 14.647-12.362 26.407-27.098 26.407v-4.905c12.261 0 22.202-9.941 22.202-22.202m301.787 70.478c0-12.261-9.94-22.201-22.202-22.201-12.261 0-22.201 9.94-22.201 22.201s9.94 22.202 22.201 22.203v4.905l-.699-.009c-14.647-.371-26.407-12.362-26.407-27.099 0-14.97 12.136-27.106 27.106-27.106s27.107 12.136 27.108 27.106l-.009.701c-.371 14.647-12.362 26.407-27.099 26.407v-4.905c12.262 0 22.202-9.941 22.202-22.203m-452.81 70.479c0-12.261 9.941-22.201 22.202-22.201s22.201 9.94 22.202 22.201c0 12.262-9.94 22.202-22.202 22.202v4.906l.7-.009c14.647-.371 26.407-12.362 26.407-27.099 0-14.97-12.136-27.106-27.107-27.106s-27.107 12.136-27.107 27.106l.009.7c.371 14.647 12.362 26.408 27.098 26.408v-4.906c-12.261 0-22.202-9.94-22.202-22.202m452.81 70.472c0-12.262-9.94-22.201-22.202-22.201-12.261 0-22.201 9.939-22.201 22.201 0 12.261 9.94 22.202 22.201 22.202v4.905l-.699-.009c-14.647-.371-26.407-12.361-26.407-27.098 0-14.971 12.136-27.106 27.106-27.107s27.107 12.136 27.108 27.107l-.009.7c-.371 14.647-12.362 26.407-27.099 26.407v-4.905c12.262 0 22.202-9.941 22.202-22.202m-452.81 70.479c0-12.262 9.941-22.202 22.202-22.202 12.262.001 22.201 9.94 22.202 22.202 0 12.261-9.94 22.202-22.202 22.202v4.905l.7-.009c14.647-.371 26.407-12.362 26.407-27.098 0-14.971-12.136-27.107-27.107-27.107s-27.107 12.136-27.107 27.107l.009.7c.371 14.647 12.362 26.407 27.098 26.407v-4.905c-12.261 0-22.202-9.941-22.202-22.202m452.81 70.478c0-12.261-9.94-22.201-22.202-22.201-12.261 0-22.201 9.94-22.201 22.201s9.94 22.202 22.201 22.202v4.906l-.699-.009c-14.647-.371-26.407-12.362-26.407-27.099 0-14.97 12.136-27.106 27.106-27.106s27.107 12.136 27.108 27.106l-.009.701c-.371 14.647-12.362 26.407-27.099 26.407v-4.906c12.262 0 22.202-9.94 22.202-22.202m0 70.477c0-12.262-9.94-22.201-22.202-22.201-12.261 0-22.201 9.94-22.201 22.201s9.94 22.202 22.201 22.202v4.905l-.699-.008c-14.647-.371-26.407-12.362-26.407-27.099 0-14.971 12.136-27.106 27.106-27.107s27.107 12.136 27.108 27.107l-.009.7c-.371 14.647-12.362 26.407-27.099 26.407v-4.905c12.262 0 22.202-9.941 22.202-22.202"/><path fill="#fff" d="M331.166 813.002c0 14.97 12.137 27.106 27.107 27.106 14.971 0 27.107-12.136 27.107-27.106s-12.136-27.107-27.107-27.107-27.107 12.136-27.107 27.107"/><path fill="#000F47" d="M793.786 883.481c0 14.97-12.136 27.106-27.107 27.106s-27.106-12.136-27.106-27.106 12.136-27.107 27.106-27.107 27.107 12.136 27.107 27.107m-462.62 70.478c0 14.971 12.137 27.107 27.107 27.107 14.971 0 27.107-12.136 27.107-27.107s-12.136-27.106-27.107-27.106-27.107 12.136-27.107 27.106"/><path fill="#fff" d="M631.146 108.23c0 14.971-12.137 27.107-27.107 27.107-14.971 0-27.107-12.136-27.107-27.107s12.136-27.107 27.107-27.107 27.107 12.136 27.107 27.107"/><path fill="#000F47" d="M493.807 178.709c0 14.97 12.136 27.106 27.107 27.106s27.107-12.136 27.107-27.106-12.137-27.107-27.107-27.107c-14.971 0-27.107 12.136-27.107 27.107m132.434 70.476c0-12.261-9.941-22.201-22.202-22.201s-22.201 9.94-22.202 22.201c0 12.262 9.94 22.202 22.202 22.202v4.905l-.7-.008c-14.647-.371-26.407-12.362-26.407-27.099 0-14.97 12.136-27.106 27.107-27.106s27.107 12.136 27.107 27.106l-.009.7c-.371 14.647-12.362 26.407-27.098 26.407v-4.905c12.261 0 22.202-9.94 22.202-22.202"/><path fill="#fff" d="M631.146 390.141c0 14.97-12.137 27.106-27.107 27.106-14.971 0-27.107-12.136-27.107-27.106s12.136-27.107 27.107-27.107 27.107 12.136 27.107 27.107m-132.434 70.478c0-12.261 9.941-22.201 22.202-22.201s22.201 9.94 22.201 22.201-9.94 22.202-22.201 22.202v4.906l.699-.009c14.648-.371 26.408-12.362 26.408-27.099-.001-14.97-12.137-27.106-27.107-27.106s-27.107 12.136-27.107 27.106l.008.7c.372 14.647 12.362 26.408 27.099 26.408v-4.906c-12.261 0-22.202-9.94-22.202-22.202m132.434 70.472c0 14.971-12.137 27.107-27.107 27.107-14.971 0-27.107-12.136-27.107-27.107s12.136-27.107 27.107-27.107 27.107 12.136 27.107 27.107"/><path fill="#fff" d="M626.241 531.091c0-12.262-9.941-22.201-22.202-22.201s-22.201 9.939-22.202 22.201c0 12.261 9.94 22.202 22.202 22.202v4.905l-.7-.009c-14.647-.371-26.407-12.361-26.407-27.098 0-14.971 12.136-27.106 27.107-27.107s27.107 12.136 27.107 27.107l-.009.7c-.371 14.647-12.362 26.407-27.098 26.407v-4.905c12.261 0 22.202-9.941 22.202-22.202"/><path fill="#000F47" d="M498.712 601.57c0-12.262 9.941-22.202 22.202-22.202 12.261.001 22.201 9.94 22.201 22.202 0 12.261-9.94 22.202-22.201 22.202v4.905l.699-.009c14.648-.371 26.408-12.362 26.408-27.098-.001-14.971-12.137-27.107-27.107-27.107s-27.107 12.136-27.107 27.107l.008.7c.372 14.647 12.362 26.407 27.099 26.407v-4.905c-12.261 0-22.202-9.941-22.202-22.202m127.529 70.478c0-12.261-9.941-22.201-22.202-22.201s-22.201 9.94-22.202 22.201c0 12.262 9.94 22.202 22.202 22.202v4.906l-.7-.009c-14.647-.371-26.407-12.362-26.407-27.099 0-14.97 12.136-27.106 27.107-27.106s27.107 12.136 27.107 27.106l-.009.701c-.371 14.647-12.362 26.407-27.098 26.407v-4.906c12.261 0 22.202-9.94 22.202-22.202"/><path fill="#fff" d="M626.241 742.525c0-12.262-9.941-22.201-22.202-22.201s-22.201 9.94-22.202 22.201c0 12.261 9.94 22.202 22.202 22.202v4.905l-.7-.008c-14.647-.371-26.407-12.362-26.407-27.099 0-14.971 12.136-27.106 27.107-27.107s27.107 12.136 27.107 27.107l-.009.7c-.371 14.647-12.362 26.407-27.098 26.407v-4.905c12.261 0 22.202-9.941 22.202-22.202"/><path fill="#000F47" d="M493.807 813.002c0 14.97 12.136 27.106 27.107 27.106s27.107-12.136 27.107-27.106-12.137-27.107-27.107-27.107c-14.971 0-27.107 12.136-27.107 27.107"/><path fill="#fff" d="M626.241 883.48c0-12.261-9.941-22.201-22.202-22.201s-22.201 9.94-22.202 22.201c0 12.262 9.94 22.202 22.202 22.202v4.906l-.7-.009c-14.647-.371-26.407-12.362-26.407-27.099 0-14.97 12.136-27.106 27.107-27.106s27.107 12.136 27.107 27.106l-.009.7c-.371 14.648-12.362 26.408-27.098 26.408v-4.906c12.261 0 22.202-9.94 22.202-22.202m-127.529 70.479c0-12.261 9.941-22.201 22.202-22.201s22.201 9.94 22.201 22.201-9.94 22.202-22.201 22.202v4.905l.699-.008c14.648-.371 26.408-12.362 26.408-27.099-.001-14.97-12.137-27.106-27.107-27.106s-27.107 12.135-27.107 27.106l.008.7c.372 14.647 12.362 26.407 27.099 26.407v-4.905c-12.261 0-22.202-9.94-22.202-22.202"/><path fill="#000F47" d="M703.433 108.23c0 14.971-12.136 27.107-27.107 27.107s-27.107-12.136-27.107-27.107 12.136-27.107 27.107-27.107 27.107 12.136 27.107 27.107m-277.008 70.478c0-12.261 9.94-22.201 22.202-22.201 12.261 0 22.201 9.94 22.201 22.201s-9.94 22.202-22.201 22.203v4.905l.699-.009c14.648-.371 26.407-12.362 26.407-27.099 0-14.97-12.136-27.106-27.106-27.106s-27.107 12.136-27.107 27.106l.008.701c.372 14.647 12.362 26.407 27.099 26.407v-4.905c-12.262 0-22.202-9.941-22.202-22.203m277.008 70.477c0 14.971-12.136 27.107-27.107 27.107s-27.107-12.136-27.107-27.107 12.136-27.106 27.107-27.106 27.107 12.136 27.107 27.106m-301.788 70.477c0 14.971-12.136 27.107-27.107 27.107s-27.106-12.136-27.106-27.107 12.136-27.107 27.106-27.107 27.107 12.136 27.107 27.107m301.788 70.479c0 14.97-12.136 27.106-27.107 27.106s-27.107-12.136-27.107-27.106 12.136-27.107 27.107-27.107 27.107 12.136 27.107 27.107"/><path fill="#fff" d="M421.52 460.619c0 14.971 12.136 27.107 27.107 27.107s27.106-12.136 27.106-27.107-12.136-27.106-27.106-27.106-27.107 12.136-27.107 27.106"/><path fill="#000F47" d="M703.433 531.091c0 14.971-12.136 27.107-27.107 27.107s-27.107-12.136-27.107-27.107 12.136-27.107 27.107-27.107 27.107 12.136 27.107 27.107"/><path fill="#fff" d="M421.52 601.57c0 14.97 12.136 27.107 27.107 27.107s27.106-12.137 27.106-27.107c0-14.971-12.136-27.107-27.106-27.107s-27.107 12.136-27.107 27.107m281.913 70.479c0 14.97-12.136 27.106-27.107 27.106s-27.107-12.136-27.107-27.106 12.136-27.107 27.107-27.107 27.107 12.136 27.107 27.107"/><path fill="#000F47" d="M698.528 742.525c0-12.262-9.941-22.201-22.202-22.201s-22.201 9.94-22.201 22.201 9.939 22.202 22.201 22.202v4.905l-.7-.008c-14.647-.371-26.407-12.362-26.407-27.099 0-14.971 12.136-27.106 27.107-27.107s27.107 12.136 27.107 27.107l-.009.7c-.371 14.647-12.362 26.407-27.098 26.407v-4.905c12.261 0 22.202-9.941 22.202-22.202m-272.103 70.476c0-12.261 9.94-22.201 22.202-22.201 12.261 0 22.201 9.94 22.201 22.201s-9.94 22.202-22.201 22.203v4.905l.699-.009c14.648-.371 26.407-12.362 26.407-27.099 0-14.97-12.136-27.106-27.106-27.106s-27.107 12.136-27.107 27.106l.008.701c.372 14.647 12.362 26.407 27.099 26.407v-4.905c-12.262 0-22.202-9.941-22.202-22.203m272.103 70.479c0-12.261-9.941-22.201-22.202-22.201s-22.201 9.94-22.201 22.201 9.939 22.202 22.201 22.202v4.906l-.7-.009c-14.647-.371-26.407-12.362-26.407-27.099 0-14.97 12.136-27.106 27.107-27.106s27.107 12.136 27.107 27.106l-.009.7c-.371 14.648-12.362 26.408-27.098 26.408v-4.906c12.261 0 22.202-9.94 22.202-22.202m-272.103 70.479c0-12.261 9.94-22.201 22.202-22.201 12.261 0 22.201 9.94 22.201 22.201s-9.94 22.202-22.201 22.202v4.905l.699-.008c14.648-.371 26.407-12.362 26.407-27.099 0-14.97-12.136-27.106-27.106-27.106s-27.107 12.135-27.107 27.106l.008.7c.372 14.647 12.362 26.407 27.099 26.407v-4.905c-12.262 0-22.202-9.94-22.202-22.202"/></g></svg>