<svg xmlns="http://www.w3.org/2000/svg" fill="none" viewBox="0 0 1080 1080"><path fill="#FFBF00" d="M415.95 817.122c-7.583-41.132 4.595-79.277 28.493-107.081 26.196-30.102 38.145-70.085 38.145-109.838v-2.758h114.894v6.205c0 40.902 16.544 79.046 41.821 110.987 17.004 21.37 27.115 48.485 27.115 78.127 0 78.817-71.694 140.63-153.498 123.626-48.715-10.111-87.779-50.323-96.97-99.268"/><path fill="#CEECFF" d="M727.243 415.677c-7.583-41.132 4.595-79.277 28.493-107.081 26.196-30.102 38.145-70.085 38.145-109.839V196h114.894v6.204c0 40.902 16.544 79.047 41.821 110.987 17.004 21.371 27.115 48.486 27.115 78.128 0 78.817-71.694 140.63-153.498 123.626-48.715-10.111-87.779-50.324-96.97-99.268M544.001 1034h-4v-87h4zm-75.536-105.098-43.5 75.348-3.463-2 43.5-75.348zm193.5 71.348-3.463 2-43.5-75.348 3.463-2zM412.098 875.464l-75.344 43.5-2-3.464 75.344-43.5zm335.149 36.568-2 3.464-75.344-43.5 2-3.464zM277.78 416.375c0 40.126-12.059 80.603-38.629 111.141l.001.001c-23.521 27.366-35.511 64.904-28.043 105.415 9.046 48.154 47.5 87.728 95.409 97.672 80.538 16.74 151.092-44.094 151.092-121.667 0-29.18-9.95-55.858-26.68-76.883l-.004-.004c-25.485-32.204-42.253-70.774-42.253-112.229v-6.204h4v6.204c0 40.348 16.321 78.067 41.387 109.742l.805 1.023c16.792 21.555 26.745 48.715 26.745 78.351 0 80.059-72.834 142.85-155.904 125.583-49.518-10.278-89.19-51.125-98.53-100.857l-.002-.007c-7.697-41.753 4.671-80.505 28.945-108.747l.008-.009c25.815-29.665 37.653-69.149 37.653-108.525v-2.758h4zm238.967 155.672-.599 3.954-32.655-4.947.599-3.955zm81-4.948-.599 3.955-113.745-17.235.6-3.955zm0-17.235-.599 3.955-113.745-17.234.6-3.955zm0-17.233-.599 3.954-32.655-4.947.599-3.955zm-56.896-8.716h-4V0h4zM309.938 384.77l-.599 3.954-32.655-4.948.6-3.955zm81-4.949-.599 3.955-113.745-17.234.6-3.955zm0-17.234-.599 3.955-113.745-17.234.6-3.955zm0-17.233-.599 3.954-32.655-4.948.6-3.955zm-55.746-17.907h-4V0h4zm492.824-150.986-.598 3.954-32.656-4.947.6-3.955zm81-4.948-.598 3.955-113.746-17.235.6-3.955zm0-17.235-.598 3.955-113.746-17.234.6-3.955zm0-17.235-.598 3.954-32.656-4.947.6-3.955zM853.001 124h-4V0h4z"/></svg>